<mxfile host="Electron" agent="Mozilla/5.0 (Windows NT 10.0; Win64; x64) AppleWebKit/537.36 (KHTML, like Gecko) draw.io/24.7.17 Chrome/128.0.6613.36 Electron/32.0.1 Safari/537.36" version="24.7.17">
  <diagram name="第 1 页" id="zdy73bDGHU6fEA5Vpddr">
    <mxGraphModel dx="1750" dy="1035" grid="1" gridSize="10" guides="1" tooltips="1" connect="1" arrows="1" fold="1" page="1" pageScale="1" pageWidth="827" pageHeight="1169" math="0" shadow="0">
      <root>
        <mxCell id="0" />
        <mxCell id="1" parent="0" />
        <mxCell id="KtM1gwVQeg2r9AHxviMZ-226" value="" style="endArrow=classic;html=1;rounded=0;exitX=0.5;exitY=0.937;exitDx=0;exitDy=0;exitPerimeter=0;endSize=8;" edge="1" parent="1">
          <mxGeometry width="50" height="50" relative="1" as="geometry">
            <mxPoint x="141.01999999999998" y="632" as="sourcePoint" />
            <mxPoint x="141.01999999999998" y="671" as="targetPoint" />
          </mxGeometry>
        </mxCell>
        <mxCell id="KtM1gwVQeg2r9AHxviMZ-225" value="" style="endArrow=classic;html=1;rounded=0;exitX=0.5;exitY=0.937;exitDx=0;exitDy=0;exitPerimeter=0;endSize=8;" edge="1" parent="1">
          <mxGeometry width="50" height="50" relative="1" as="geometry">
            <mxPoint x="244.51999999999998" y="632" as="sourcePoint" />
            <mxPoint x="244.51999999999998" y="671" as="targetPoint" />
          </mxGeometry>
        </mxCell>
        <mxCell id="KtM1gwVQeg2r9AHxviMZ-217" value="" style="endArrow=classic;html=1;rounded=0;exitX=0.5;exitY=0.937;exitDx=0;exitDy=0;exitPerimeter=0;endSize=8;" edge="1" parent="1">
          <mxGeometry width="50" height="50" relative="1" as="geometry">
            <mxPoint x="1324.52" y="631" as="sourcePoint" />
            <mxPoint x="1324.52" y="670" as="targetPoint" />
          </mxGeometry>
        </mxCell>
        <mxCell id="KtM1gwVQeg2r9AHxviMZ-219" value="" style="endArrow=classic;html=1;rounded=0;exitX=0.5;exitY=0.937;exitDx=0;exitDy=0;exitPerimeter=0;endSize=8;" edge="1" parent="1">
          <mxGeometry width="50" height="50" relative="1" as="geometry">
            <mxPoint x="1541" y="631" as="sourcePoint" />
            <mxPoint x="1541" y="670" as="targetPoint" />
          </mxGeometry>
        </mxCell>
        <mxCell id="KtM1gwVQeg2r9AHxviMZ-228" value="" style="endArrow=classic;html=1;rounded=0;exitX=0.5;exitY=0.937;exitDx=0;exitDy=0;exitPerimeter=0;endSize=8;" edge="1" parent="1">
          <mxGeometry width="50" height="50" relative="1" as="geometry">
            <mxPoint x="1655.52" y="630" as="sourcePoint" />
            <mxPoint x="1655.52" y="669" as="targetPoint" />
          </mxGeometry>
        </mxCell>
        <mxCell id="KtM1gwVQeg2r9AHxviMZ-216" value="" style="endArrow=classic;html=1;rounded=0;exitX=0.5;exitY=0.937;exitDx=0;exitDy=0;exitPerimeter=0;endSize=8;" edge="1" parent="1">
          <mxGeometry width="50" height="50" relative="1" as="geometry">
            <mxPoint x="1105.52" y="632" as="sourcePoint" />
            <mxPoint x="1105.52" y="671" as="targetPoint" />
          </mxGeometry>
        </mxCell>
        <mxCell id="KtM1gwVQeg2r9AHxviMZ-232" value="" style="endArrow=classic;html=1;rounded=0;exitX=0.5;exitY=0.937;exitDx=0;exitDy=0;exitPerimeter=0;endSize=8;" edge="1" parent="1">
          <mxGeometry width="50" height="50" relative="1" as="geometry">
            <mxPoint x="559.52" y="632" as="sourcePoint" />
            <mxPoint x="559.52" y="671" as="targetPoint" />
          </mxGeometry>
        </mxCell>
        <mxCell id="KtM1gwVQeg2r9AHxviMZ-227" value="" style="endArrow=classic;html=1;rounded=0;exitX=0.5;exitY=0.937;exitDx=0;exitDy=0;exitPerimeter=0;endSize=8;" edge="1" parent="1">
          <mxGeometry width="50" height="50" relative="1" as="geometry">
            <mxPoint x="774.52" y="632" as="sourcePoint" />
            <mxPoint x="774.52" y="671" as="targetPoint" />
          </mxGeometry>
        </mxCell>
        <mxCell id="KtM1gwVQeg2r9AHxviMZ-218" value="" style="endArrow=classic;html=1;rounded=0;exitX=0.5;exitY=0.937;exitDx=0;exitDy=0;exitPerimeter=0;endSize=8;" edge="1" parent="1">
          <mxGeometry width="50" height="50" relative="1" as="geometry">
            <mxPoint x="886.52" y="631" as="sourcePoint" />
            <mxPoint x="886.52" y="670" as="targetPoint" />
          </mxGeometry>
        </mxCell>
        <mxCell id="KtM1gwVQeg2r9AHxviMZ-214" value="" style="endArrow=classic;html=1;rounded=0;exitX=0.512;exitY=0.937;exitDx=0;exitDy=0;exitPerimeter=0;endSize=8;entryX=0.512;entryY=0.111;entryDx=0;entryDy=0;entryPerimeter=0;" edge="1" parent="1">
          <mxGeometry width="50" height="50" relative="1" as="geometry">
            <mxPoint x="1542.1999999999998" y="511.3299999999999" as="sourcePoint" />
            <mxPoint x="1542.1999999999998" y="554.9899999999998" as="targetPoint" />
          </mxGeometry>
        </mxCell>
        <mxCell id="KtM1gwVQeg2r9AHxviMZ-103" value="" style="endArrow=classic;html=1;rounded=0;endSize=8;jumpSize=13;entryX=0;entryY=0.5;entryDx=0;entryDy=0;fontFamily=Helvetica;" edge="1" parent="1">
          <mxGeometry width="50" height="50" relative="1" as="geometry">
            <mxPoint x="282" y="595" as="sourcePoint" />
            <mxPoint x="307" y="595" as="targetPoint" />
          </mxGeometry>
        </mxCell>
        <mxCell id="KtM1gwVQeg2r9AHxviMZ-170" value="" style="endArrow=classic;html=1;rounded=0;" edge="1" parent="1">
          <mxGeometry width="50" height="50" relative="1" as="geometry">
            <mxPoint x="1355" y="711.47" as="sourcePoint" />
            <mxPoint x="1395" y="711.47" as="targetPoint" />
          </mxGeometry>
        </mxCell>
        <mxCell id="KtM1gwVQeg2r9AHxviMZ-181" value="" style="endArrow=classic;html=1;rounded=0;" edge="1" parent="1">
          <mxGeometry width="50" height="50" relative="1" as="geometry">
            <mxPoint x="1138" y="712" as="sourcePoint" />
            <mxPoint x="1178" y="712" as="targetPoint" />
          </mxGeometry>
        </mxCell>
        <mxCell id="KtM1gwVQeg2r9AHxviMZ-173" value="" style="endArrow=classic;html=1;rounded=0;" edge="1" parent="1">
          <mxGeometry width="50" height="50" relative="1" as="geometry">
            <mxPoint x="1027" y="710.47" as="sourcePoint" />
            <mxPoint x="1067" y="710.47" as="targetPoint" />
          </mxGeometry>
        </mxCell>
        <mxCell id="KtM1gwVQeg2r9AHxviMZ-182" value="" style="endArrow=classic;html=1;rounded=0;" edge="1" parent="1">
          <mxGeometry width="50" height="50" relative="1" as="geometry">
            <mxPoint x="587" y="710.47" as="sourcePoint" />
            <mxPoint x="627" y="710.47" as="targetPoint" />
          </mxGeometry>
        </mxCell>
        <mxCell id="KtM1gwVQeg2r9AHxviMZ-157" value="" style="endArrow=classic;html=1;rounded=0;entryX=0.05;entryY=0.556;entryDx=0;entryDy=0;entryPerimeter=0;endSize=8;exitX=0.21;exitY=0.512;exitDx=0;exitDy=0;exitPerimeter=0;" edge="1" parent="1" source="KtM1gwVQeg2r9AHxviMZ-99">
          <mxGeometry width="50" height="50" relative="1" as="geometry">
            <mxPoint x="605" y="595" as="sourcePoint" />
            <mxPoint x="735" y="595.04" as="targetPoint" />
          </mxGeometry>
        </mxCell>
        <mxCell id="KtM1gwVQeg2r9AHxviMZ-168" value="" style="endArrow=classic;html=1;rounded=0;entryX=0.034;entryY=0.624;entryDx=0;entryDy=0;entryPerimeter=0;endSize=8;" edge="1" parent="1">
          <mxGeometry width="50" height="50" relative="1" as="geometry">
            <mxPoint x="1686.49" y="711.76" as="sourcePoint" />
            <mxPoint x="1725.0033333333329" y="712.24" as="targetPoint" />
          </mxGeometry>
        </mxCell>
        <mxCell id="KtM1gwVQeg2r9AHxviMZ-164" value="" style="endArrow=classic;html=1;rounded=0;exitX=0.85;exitY=0.555;exitDx=0;exitDy=0;entryX=0.034;entryY=0.624;entryDx=0;entryDy=0;entryPerimeter=0;exitPerimeter=0;endSize=8;" edge="1" parent="1">
          <mxGeometry width="50" height="50" relative="1" as="geometry">
            <mxPoint x="1684.97" y="596" as="sourcePoint" />
            <mxPoint x="1832.0033333333329" y="596.01" as="targetPoint" />
          </mxGeometry>
        </mxCell>
        <mxCell id="KtM1gwVQeg2r9AHxviMZ-163" value="" style="endArrow=classic;html=1;rounded=0;exitX=0.85;exitY=0.555;exitDx=0;exitDy=0;entryX=0.034;entryY=0.624;entryDx=0;entryDy=0;entryPerimeter=0;exitPerimeter=0;endSize=8;" edge="1" parent="1">
          <mxGeometry width="50" height="50" relative="1" as="geometry">
            <mxPoint x="1684.97" y="478" as="sourcePoint" />
            <mxPoint x="1832.0033333333329" y="478.01" as="targetPoint" />
          </mxGeometry>
        </mxCell>
        <mxCell id="KtM1gwVQeg2r9AHxviMZ-162" value="" style="endArrow=classic;html=1;rounded=0;entryX=0.35;entryY=0.5;entryDx=0;entryDy=0;entryPerimeter=0;endSize=8;" edge="1" parent="1">
          <mxGeometry width="50" height="50" relative="1" as="geometry">
            <mxPoint x="1570" y="478" as="sourcePoint" />
            <mxPoint x="1615" y="478" as="targetPoint" />
          </mxGeometry>
        </mxCell>
        <mxCell id="KtM1gwVQeg2r9AHxviMZ-161" value="" style="endArrow=classic;html=1;rounded=0;endSize=8;exitX=0.43;exitY=0.5;exitDx=0;exitDy=0;exitPerimeter=0;" edge="1" parent="1">
          <mxGeometry width="50" height="50" relative="1" as="geometry">
            <mxPoint x="1327.9999999999995" y="593.47" as="sourcePoint" />
            <mxPoint x="1505" y="593.47" as="targetPoint" />
          </mxGeometry>
        </mxCell>
        <mxCell id="KtM1gwVQeg2r9AHxviMZ-160" value="" style="endArrow=classic;html=1;rounded=0;endSize=8;exitX=0.43;exitY=0.5;exitDx=0;exitDy=0;exitPerimeter=0;" edge="1" parent="1">
          <mxGeometry width="50" height="50" relative="1" as="geometry">
            <mxPoint x="1106.9999999999995" y="596.47" as="sourcePoint" />
            <mxPoint x="1284" y="596.47" as="targetPoint" />
          </mxGeometry>
        </mxCell>
        <mxCell id="KtM1gwVQeg2r9AHxviMZ-159" value="" style="endArrow=classic;html=1;rounded=0;endSize=8;exitX=0.43;exitY=0.5;exitDx=0;exitDy=0;exitPerimeter=0;" edge="1" parent="1">
          <mxGeometry width="50" height="50" relative="1" as="geometry">
            <mxPoint x="888.9999999999995" y="596" as="sourcePoint" />
            <mxPoint x="1066" y="596" as="targetPoint" />
          </mxGeometry>
        </mxCell>
        <mxCell id="J-q6yY1MBjcJbUwqOQWw-177" value="" style="endArrow=classic;html=1;rounded=0;exitX=0.85;exitY=0.555;exitDx=0;exitDy=0;entryX=0.034;entryY=0.624;entryDx=0;entryDy=0;entryPerimeter=0;exitPerimeter=0;endSize=8;" parent="1" edge="1">
          <mxGeometry width="50" height="50" relative="1" as="geometry">
            <mxPoint x="1687" y="366.95000000000005" as="sourcePoint" />
            <mxPoint x="1834.0333333333328" y="366.96000000000004" as="targetPoint" />
          </mxGeometry>
        </mxCell>
        <mxCell id="KtM1gwVQeg2r9AHxviMZ-154" value="" style="endArrow=classic;html=1;rounded=0;entryX=0.05;entryY=0.556;entryDx=0;entryDy=0;entryPerimeter=0;endSize=8;" edge="1" parent="1" target="KtM1gwVQeg2r9AHxviMZ-128">
          <mxGeometry width="50" height="50" relative="1" as="geometry">
            <mxPoint x="1360" y="481" as="sourcePoint" />
            <mxPoint x="1530" y="411" as="targetPoint" />
          </mxGeometry>
        </mxCell>
        <mxCell id="KtM1gwVQeg2r9AHxviMZ-152" value="" style="endArrow=classic;html=1;rounded=0;entryX=0.05;entryY=0.5;entryDx=0;entryDy=0;entryPerimeter=0;endSize=8;" edge="1" parent="1" target="KtM1gwVQeg2r9AHxviMZ-146">
          <mxGeometry width="50" height="50" relative="1" as="geometry">
            <mxPoint x="347" y="476" as="sourcePoint" />
            <mxPoint x="580" y="411" as="targetPoint" />
          </mxGeometry>
        </mxCell>
        <mxCell id="KtM1gwVQeg2r9AHxviMZ-151" value="" style="endArrow=classic;html=1;rounded=0;endSize=8;" edge="1" parent="1">
          <mxGeometry width="50" height="50" relative="1" as="geometry">
            <mxPoint x="158" y="476" as="sourcePoint" />
            <mxPoint x="308" y="476" as="targetPoint" />
          </mxGeometry>
        </mxCell>
        <mxCell id="KtM1gwVQeg2r9AHxviMZ-150" value="" style="endArrow=classic;html=1;rounded=0;exitX=0.7;exitY=0.556;exitDx=0;exitDy=0;exitPerimeter=0;strokeWidth=1;endSize=8;" edge="1" parent="1">
          <mxGeometry width="50" height="50" relative="1" as="geometry">
            <mxPoint x="162" y="367.03999999999996" as="sourcePoint" />
            <mxPoint x="1612" y="367" as="targetPoint" />
          </mxGeometry>
        </mxCell>
        <mxCell id="KtM1gwVQeg2r9AHxviMZ-104" value="" style="endArrow=classic;html=1;rounded=0;endSize=8;jumpSize=13;exitX=0.83;exitY=0.5;exitDx=0;exitDy=0;exitPerimeter=0;entryX=0.11;entryY=0.5;entryDx=0;entryDy=0;entryPerimeter=0;fontFamily=Helvetica;" edge="1" parent="1" source="KtM1gwVQeg2r9AHxviMZ-102" target="KtM1gwVQeg2r9AHxviMZ-99">
          <mxGeometry width="50" height="50" relative="1" as="geometry">
            <mxPoint x="190" y="604" as="sourcePoint" />
            <mxPoint x="215" y="604" as="targetPoint" />
          </mxGeometry>
        </mxCell>
        <mxCell id="KtM1gwVQeg2r9AHxviMZ-86" value="" style="rounded=0;whiteSpace=wrap;html=1;fillColor=default;fontSize=18;fontFamily=Helvetica;" vertex="1" parent="1">
          <mxGeometry x="205" y="554" width="80" height="80" as="geometry" />
        </mxCell>
        <mxCell id="KtM1gwVQeg2r9AHxviMZ-87" value="&lt;div style=&quot;&quot;&gt;&lt;span style=&quot;font-size: 18px; text-align: start; background-color: rgb(251, 251, 251);&quot;&gt;&amp;nbsp;1&amp;nbsp;&lt;/span&gt;&lt;span style=&quot;text-wrap: wrap; color: rgb(32, 33, 34); text-align: start; background-color: rgb(255, 255, 255);&quot;&gt;&lt;font style=&quot;font-size: 23px;&quot;&gt;丨&lt;/font&gt;&lt;/span&gt;&lt;span style=&quot;font-size: 18px; text-wrap: wrap; color: rgb(32, 33, 34); text-align: start; background-color: rgb(255, 255, 255);&quot;&gt;15&lt;/span&gt;&lt;/div&gt;————&lt;br style=&quot;font-size: 18px;&quot;&gt;&lt;span style=&quot;text-wrap: wrap; text-align: start; background-color: rgb(255, 255, 255); font-size: 18px;&quot;&gt;&lt;font color=&quot;#474747&quot;&gt;15&lt;/font&gt;&lt;/span&gt;&lt;span style=&quot;text-wrap: wrap; color: rgb(32, 33, 34); text-align: start; background-color: rgb(255, 255, 255);&quot;&gt;&lt;font style=&quot;font-size: 23px;&quot;&gt;丨&lt;/font&gt;&lt;/span&gt;&lt;span style=&quot;text-wrap: wrap; color: rgb(32, 33, 34); text-align: start; background-color: rgb(255, 255, 255); font-size: 18px;&quot;&gt;15&lt;/span&gt;" style="text;html=1;align=center;verticalAlign=middle;resizable=0;points=[];autosize=1;strokeColor=none;fillColor=none;fontSize=18;strokeWidth=7;opacity=0;fontFamily=Helvetica;" vertex="1" parent="1">
          <mxGeometry x="195" y="549" width="100" height="90" as="geometry" />
        </mxCell>
        <mxCell id="J-q6yY1MBjcJbUwqOQWw-180" value="2" style="rounded=0;whiteSpace=wrap;html=1;fontSize=16;strokeColor=#FFFFFF;" parent="1" vertex="1">
          <mxGeometry x="320" y="755" width="50" height="60" as="geometry" />
        </mxCell>
        <mxCell id="J-q6yY1MBjcJbUwqOQWw-181" value="1" style="rounded=0;whiteSpace=wrap;html=1;fontSize=16;strokeColor=#FFFFFF;" parent="1" vertex="1">
          <mxGeometry x="220" y="755" width="50" height="60" as="geometry" />
        </mxCell>
        <mxCell id="J-q6yY1MBjcJbUwqOQWw-182" value="3" style="rounded=0;whiteSpace=wrap;html=1;fontSize=16;strokeColor=#FFFFFF;" parent="1" vertex="1">
          <mxGeometry x="431" y="755" width="50" height="60" as="geometry" />
        </mxCell>
        <mxCell id="J-q6yY1MBjcJbUwqOQWw-183" value="5" style="rounded=0;whiteSpace=wrap;html=1;fontSize=16;strokeColor=#FFFFFF;" parent="1" vertex="1">
          <mxGeometry x="642" y="755" width="50" height="60" as="geometry" />
        </mxCell>
        <mxCell id="J-q6yY1MBjcJbUwqOQWw-184" value="7" style="rounded=0;whiteSpace=wrap;html=1;fontSize=16;strokeColor=#FFFFFF;" parent="1" vertex="1">
          <mxGeometry x="862" y="755" width="50" height="60" as="geometry" />
        </mxCell>
        <mxCell id="J-q6yY1MBjcJbUwqOQWw-185" value="8" style="rounded=0;whiteSpace=wrap;html=1;fontSize=16;strokeColor=#FFFFFF;" parent="1" vertex="1">
          <mxGeometry x="971" y="755" width="50" height="60" as="geometry" />
        </mxCell>
        <mxCell id="J-q6yY1MBjcJbUwqOQWw-186" value="9" style="rounded=0;whiteSpace=wrap;html=1;fontSize=16;strokeColor=#FFFFFF;" parent="1" vertex="1">
          <mxGeometry x="1083" y="755" width="50" height="60" as="geometry" />
        </mxCell>
        <mxCell id="J-q6yY1MBjcJbUwqOQWw-187" value="12" style="rounded=0;whiteSpace=wrap;html=1;fontSize=16;strokeColor=#FFFFFF;" parent="1" vertex="1">
          <mxGeometry x="1413" y="755" width="50" height="60" as="geometry" />
        </mxCell>
        <mxCell id="J-q6yY1MBjcJbUwqOQWw-188" value="13" style="rounded=0;whiteSpace=wrap;html=1;fontSize=16;strokeColor=#FFFFFF;" parent="1" vertex="1">
          <mxGeometry x="1522" y="755" width="50" height="60" as="geometry" />
        </mxCell>
        <mxCell id="J-q6yY1MBjcJbUwqOQWw-189" value="15" style="rounded=0;whiteSpace=wrap;html=1;fontSize=16;strokeColor=#FFFFFF;" parent="1" vertex="1">
          <mxGeometry x="1738" y="755" width="50" height="60" as="geometry" />
        </mxCell>
        <mxCell id="J-q6yY1MBjcJbUwqOQWw-194" value="4" style="rounded=0;whiteSpace=wrap;html=1;fontSize=16;strokeColor=#FFFFFF;" parent="1" vertex="1">
          <mxGeometry x="535" y="755" width="50" height="60" as="geometry" />
        </mxCell>
        <mxCell id="J-q6yY1MBjcJbUwqOQWw-195" value="6" style="rounded=0;whiteSpace=wrap;html=1;fontSize=16;strokeColor=#FFFFFF;" parent="1" vertex="1">
          <mxGeometry x="750" y="755" width="50" height="60" as="geometry" />
        </mxCell>
        <mxCell id="J-q6yY1MBjcJbUwqOQWw-196" value="10" style="rounded=0;whiteSpace=wrap;html=1;fontSize=16;strokeColor=#FFFFFF;" parent="1" vertex="1">
          <mxGeometry x="1192" y="755" width="50" height="60" as="geometry" />
        </mxCell>
        <mxCell id="J-q6yY1MBjcJbUwqOQWw-197" value="11" style="rounded=0;whiteSpace=wrap;html=1;fontSize=16;strokeColor=#FFFFFF;" parent="1" vertex="1">
          <mxGeometry x="1298" y="755" width="50" height="60" as="geometry" />
        </mxCell>
        <mxCell id="J-q6yY1MBjcJbUwqOQWw-198" value="14" style="rounded=0;whiteSpace=wrap;html=1;fontSize=16;strokeColor=#FFFFFF;" parent="1" vertex="1">
          <mxGeometry x="1632" y="755" width="50" height="60" as="geometry" />
        </mxCell>
        <mxCell id="J-q6yY1MBjcJbUwqOQWw-62" style="edgeStyle=orthogonalEdgeStyle;rounded=0;orthogonalLoop=1;jettySize=auto;html=1;exitX=1;exitY=0.5;exitDx=0;exitDy=0;entryX=0;entryY=0.5;entryDx=0;entryDy=0;fontSize=16;" parent="1" target="J-q6yY1MBjcJbUwqOQWw-30" edge="1">
          <mxGeometry relative="1" as="geometry">
            <mxPoint x="1509.9999999999995" y="310" as="sourcePoint" />
          </mxGeometry>
        </mxCell>
        <mxCell id="J-q6yY1MBjcJbUwqOQWw-149" style="edgeStyle=orthogonalEdgeStyle;rounded=0;orthogonalLoop=1;jettySize=auto;html=1;exitX=1;exitY=0.5;exitDx=0;exitDy=0;entryX=0;entryY=0.5;entryDx=0;entryDy=0;fontSize=16;" parent="1" target="J-q6yY1MBjcJbUwqOQWw-124" edge="1">
          <mxGeometry relative="1" as="geometry">
            <mxPoint x="1269.9999999999995" y="370" as="sourcePoint" />
          </mxGeometry>
        </mxCell>
        <mxCell id="J-q6yY1MBjcJbUwqOQWw-150" style="edgeStyle=orthogonalEdgeStyle;rounded=0;orthogonalLoop=1;jettySize=auto;html=1;exitX=1;exitY=0.5;exitDx=0;exitDy=0;entryX=0;entryY=0.5;entryDx=0;entryDy=0;fontSize=16;" parent="1" source="J-q6yY1MBjcJbUwqOQWw-124" edge="1">
          <mxGeometry relative="1" as="geometry">
            <mxPoint x="1379.9999999999995" y="370" as="targetPoint" />
          </mxGeometry>
        </mxCell>
        <mxCell id="J-q6yY1MBjcJbUwqOQWw-152" style="edgeStyle=orthogonalEdgeStyle;rounded=0;orthogonalLoop=1;jettySize=auto;html=1;exitX=1;exitY=0.5;exitDx=0;exitDy=0;entryX=0;entryY=0.5;entryDx=0;entryDy=0;fontSize=16;" parent="1" target="J-q6yY1MBjcJbUwqOQWw-126" edge="1">
          <mxGeometry relative="1" as="geometry">
            <mxPoint x="1509.9999999999995" y="370" as="sourcePoint" />
          </mxGeometry>
        </mxCell>
        <mxCell id="J-q6yY1MBjcJbUwqOQWw-151" style="edgeStyle=orthogonalEdgeStyle;rounded=0;orthogonalLoop=1;jettySize=auto;html=1;exitX=1;exitY=0.5;exitDx=0;exitDy=0;entryX=0;entryY=0.5;entryDx=0;entryDy=0;fontSize=16;" parent="1" target="J-q6yY1MBjcJbUwqOQWw-125" edge="1">
          <mxGeometry relative="1" as="geometry">
            <mxPoint x="1429.9999999999995" y="370" as="sourcePoint" />
          </mxGeometry>
        </mxCell>
        <mxCell id="J-q6yY1MBjcJbUwqOQWw-154" value="level 1" style="text;html=1;strokeColor=none;fillColor=none;align=center;verticalAlign=middle;whiteSpace=wrap;rounded=0;fontSize=23;" parent="1" vertex="1">
          <mxGeometry x="10" y="574" width="78" height="30" as="geometry" />
        </mxCell>
        <mxCell id="J-q6yY1MBjcJbUwqOQWw-155" value="level 2" style="text;html=1;strokeColor=none;fillColor=none;align=center;verticalAlign=middle;whiteSpace=wrap;rounded=0;fontSize=23;" parent="1" vertex="1">
          <mxGeometry x="10" y="461" width="78" height="30" as="geometry" />
        </mxCell>
        <mxCell id="J-q6yY1MBjcJbUwqOQWw-156" value="level 3" style="text;html=1;strokeColor=none;fillColor=none;align=center;verticalAlign=middle;whiteSpace=wrap;rounded=0;fontSize=23;" parent="1" vertex="1">
          <mxGeometry x="10" y="362" width="78" as="geometry" />
        </mxCell>
        <mxCell id="J-q6yY1MBjcJbUwqOQWw-171" style="edgeStyle=orthogonalEdgeStyle;rounded=0;orthogonalLoop=1;jettySize=auto;html=1;exitX=0.5;exitY=1;exitDx=0;exitDy=0;endSize=8;" parent="1" source="J-q6yY1MBjcJbUwqOQWw-170" edge="1">
          <mxGeometry relative="1" as="geometry">
            <mxPoint x="140.42857142857156" y="322" as="targetPoint" />
          </mxGeometry>
        </mxCell>
        <mxCell id="J-q6yY1MBjcJbUwqOQWw-170" value="&lt;font style=&quot;font-size: 23px;&quot;&gt;head&lt;/font&gt;" style="text;html=1;strokeColor=none;fillColor=none;align=center;verticalAlign=middle;whiteSpace=wrap;rounded=0;" parent="1" vertex="1">
          <mxGeometry x="110" y="262" width="60" height="30" as="geometry" />
        </mxCell>
        <mxCell id="J-q6yY1MBjcJbUwqOQWw-172" value="&lt;font style=&quot;font-size: 23px;&quot;&gt;sum&lt;/font&gt;" style="text;html=1;strokeColor=none;fillColor=none;align=center;verticalAlign=middle;whiteSpace=wrap;rounded=0;" parent="1" vertex="1">
          <mxGeometry x="719" y="59" width="60" height="30" as="geometry" />
        </mxCell>
        <mxCell id="J-q6yY1MBjcJbUwqOQWw-173" value="&lt;font style=&quot;font-size: 23px;&quot;&gt;count&lt;/font&gt;" style="text;html=1;strokeColor=none;fillColor=none;align=center;verticalAlign=middle;whiteSpace=wrap;rounded=0;" parent="1" vertex="1">
          <mxGeometry x="514" y="80" width="60" height="30" as="geometry" />
        </mxCell>
        <mxCell id="J-q6yY1MBjcJbUwqOQWw-175" value="" style="endArrow=classic;html=1;rounded=0;exitX=0.5;exitY=1;exitDx=0;exitDy=0;entryX=0.925;entryY=0.061;entryDx=0;entryDy=0;entryPerimeter=0;endSize=8;" parent="1" source="J-q6yY1MBjcJbUwqOQWw-172" edge="1" target="KtM1gwVQeg2r9AHxviMZ-38">
          <mxGeometry width="50" height="50" relative="1" as="geometry">
            <mxPoint x="594" y="470" as="sourcePoint" />
            <mxPoint x="1104" y="170" as="targetPoint" />
          </mxGeometry>
        </mxCell>
        <mxCell id="J-q6yY1MBjcJbUwqOQWw-179" value="" style="endArrow=none;html=1;rounded=0;strokeColor=#FFFFFF;" parent="1" edge="1">
          <mxGeometry width="50" height="50" relative="1" as="geometry">
            <mxPoint x="1682.857142857143" y="440" as="sourcePoint" />
            <mxPoint x="1680" y="40" as="targetPoint" />
          </mxGeometry>
        </mxCell>
        <mxCell id="fiorHoXb6eRYcX3km6B3-1" value="&lt;font style=&quot;font-size: 23px;&quot;&gt;数据链表&lt;/font&gt;" style="text;html=1;strokeColor=none;fillColor=none;align=center;verticalAlign=middle;whiteSpace=wrap;rounded=0;" parent="1" vertex="1">
          <mxGeometry y="698" width="100" height="30" as="geometry" />
        </mxCell>
        <mxCell id="fiorHoXb6eRYcX3km6B3-2" value="&lt;font style=&quot;font-size: 23px;&quot;&gt;序号&lt;/font&gt;" style="text;html=1;strokeColor=none;fillColor=none;align=center;verticalAlign=middle;whiteSpace=wrap;rounded=0;" parent="1" vertex="1">
          <mxGeometry x="20" y="765" width="60" height="30" as="geometry" />
        </mxCell>
        <mxCell id="KtM1gwVQeg2r9AHxviMZ-33" value="" style="group;fontSize=18;fontFamily=Helvetica;" vertex="1" connectable="0" parent="1">
          <mxGeometry x="200" y="665" width="95" height="90" as="geometry" />
        </mxCell>
        <mxCell id="KtM1gwVQeg2r9AHxviMZ-184" value="" style="endArrow=classic;html=1;rounded=0;" edge="1" parent="KtM1gwVQeg2r9AHxviMZ-33">
          <mxGeometry width="50" height="50" relative="1" as="geometry">
            <mxPoint x="67" y="46" as="sourcePoint" />
            <mxPoint x="107" y="46" as="targetPoint" />
          </mxGeometry>
        </mxCell>
        <mxCell id="KtM1gwVQeg2r9AHxviMZ-34" value="" style="rounded=0;whiteSpace=wrap;html=1;fillColor=default;fontSize=18;fontFamily=Helvetica;" vertex="1" parent="KtM1gwVQeg2r9AHxviMZ-33">
          <mxGeometry x="5" y="5" width="80" height="80" as="geometry" />
        </mxCell>
        <mxCell id="KtM1gwVQeg2r9AHxviMZ-35" value="15&lt;br style=&quot;font-size: 18px;&quot;&gt;————&lt;br style=&quot;font-size: 18px;&quot;&gt;&lt;div style=&quot;font-size: 18px;&quot;&gt;10&lt;/div&gt;" style="text;html=1;align=center;verticalAlign=middle;resizable=0;points=[];autosize=1;strokeColor=none;fillColor=none;fontSize=18;strokeWidth=7;opacity=0;fontFamily=Helvetica;" vertex="1" parent="KtM1gwVQeg2r9AHxviMZ-33">
          <mxGeometry x="-5" y="5" width="100" height="80" as="geometry" />
        </mxCell>
        <mxCell id="KtM1gwVQeg2r9AHxviMZ-36" value="" style="group" vertex="1" connectable="0" parent="1">
          <mxGeometry x="616" y="109" width="90" height="90" as="geometry" />
        </mxCell>
        <mxCell id="KtM1gwVQeg2r9AHxviMZ-37" value="" style="rounded=0;whiteSpace=wrap;html=1;fillColor=default;" vertex="1" parent="KtM1gwVQeg2r9AHxviMZ-36">
          <mxGeometry x="5" y="5" width="80" height="80" as="geometry" />
        </mxCell>
        <mxCell id="KtM1gwVQeg2r9AHxviMZ-38" value="&lt;div style=&quot;text-align: center;&quot;&gt;&lt;span style=&quot;text-align: start; background-color: rgb(251, 251, 251);&quot;&gt;&lt;font style=&quot;font-size: 18px;&quot;&gt;4&lt;/font&gt;&lt;/span&gt;&lt;span style=&quot;text-wrap: wrap; color: rgb(32, 33, 34); font-family: sans-serif; font-size: x-large; text-align: start; background-color: rgb(255, 255, 255);&quot;&gt;丨&lt;/span&gt;&lt;span style=&quot;text-wrap: wrap; color: rgb(32, 33, 34); font-family: sans-serif; text-align: start; background-color: rgb(255, 255, 255);&quot;&gt;&lt;font style=&quot;font-size: 18px;&quot;&gt;44&lt;/font&gt;&lt;/span&gt;&lt;/div&gt;————&lt;br style=&quot;font-size: 18px;&quot;&gt;&lt;font style=&quot;font-size: 18px;&quot;&gt;6&lt;/font&gt;&lt;span style=&quot;color: rgb(32, 33, 34); font-family: sans-serif; font-size: x-large; text-align: start; text-wrap: wrap; background-color: rgb(255, 255, 255);&quot;&gt;丨&lt;/span&gt;&lt;font style=&quot;font-size: 18px;&quot;&gt;15&lt;/font&gt;" style="text;html=1;align=center;verticalAlign=middle;resizable=0;points=[];autosize=1;strokeColor=none;fillColor=none;fontSize=16;strokeWidth=7;opacity=0;" vertex="1" parent="KtM1gwVQeg2r9AHxviMZ-36">
          <mxGeometry width="90" height="90" as="geometry" />
        </mxCell>
        <mxCell id="KtM1gwVQeg2r9AHxviMZ-40" value="" style="group;fontSize=18;fontFamily=Helvetica;" vertex="1" connectable="0" parent="1">
          <mxGeometry x="302" y="665" width="95" height="90" as="geometry" />
        </mxCell>
        <mxCell id="KtM1gwVQeg2r9AHxviMZ-41" value="" style="rounded=0;whiteSpace=wrap;html=1;fillColor=default;fontSize=18;fontFamily=Helvetica;" vertex="1" parent="KtM1gwVQeg2r9AHxviMZ-40">
          <mxGeometry x="5" y="5" width="80" height="80" as="geometry" />
        </mxCell>
        <mxCell id="KtM1gwVQeg2r9AHxviMZ-42" value="6&lt;br style=&quot;font-size: 18px;&quot;&gt;————&lt;br style=&quot;font-size: 18px;&quot;&gt;20" style="text;html=1;align=center;verticalAlign=middle;resizable=0;points=[];autosize=1;strokeColor=none;fillColor=none;fontSize=18;strokeWidth=7;opacity=0;fontFamily=Helvetica;" vertex="1" parent="KtM1gwVQeg2r9AHxviMZ-40">
          <mxGeometry x="-5" y="5" width="100" height="80" as="geometry" />
        </mxCell>
        <mxCell id="KtM1gwVQeg2r9AHxviMZ-43" value="" style="group;fontSize=18;fontFamily=Helvetica;" vertex="1" connectable="0" parent="1">
          <mxGeometry x="410" y="665" width="95" height="90" as="geometry" />
        </mxCell>
        <mxCell id="KtM1gwVQeg2r9AHxviMZ-177" value="" style="endArrow=classic;html=1;rounded=0;" edge="1" parent="KtM1gwVQeg2r9AHxviMZ-43">
          <mxGeometry width="50" height="50" relative="1" as="geometry">
            <mxPoint x="69" y="46.47" as="sourcePoint" />
            <mxPoint x="109" y="46.47" as="targetPoint" />
          </mxGeometry>
        </mxCell>
        <mxCell id="KtM1gwVQeg2r9AHxviMZ-44" value="" style="rounded=0;whiteSpace=wrap;html=1;fillColor=default;fontSize=18;fontFamily=Helvetica;" vertex="1" parent="KtM1gwVQeg2r9AHxviMZ-43">
          <mxGeometry x="5" y="5" width="80" height="80" as="geometry" />
        </mxCell>
        <mxCell id="KtM1gwVQeg2r9AHxviMZ-45" value="15&lt;br style=&quot;font-size: 18px;&quot;&gt;————&lt;br style=&quot;font-size: 18px;&quot;&gt;30" style="text;html=1;align=center;verticalAlign=middle;resizable=0;points=[];autosize=1;strokeColor=none;fillColor=none;fontSize=18;strokeWidth=7;opacity=0;fontFamily=Helvetica;" vertex="1" parent="KtM1gwVQeg2r9AHxviMZ-43">
          <mxGeometry x="-5" y="5" width="100" height="80" as="geometry" />
        </mxCell>
        <mxCell id="KtM1gwVQeg2r9AHxviMZ-46" value="" style="group;fontSize=18;fontFamily=Helvetica;" vertex="1" connectable="0" parent="1">
          <mxGeometry x="514" y="665" width="95" height="90" as="geometry" />
        </mxCell>
        <mxCell id="KtM1gwVQeg2r9AHxviMZ-47" value="" style="rounded=0;whiteSpace=wrap;html=1;fillColor=default;fontSize=18;fontFamily=Helvetica;" vertex="1" parent="KtM1gwVQeg2r9AHxviMZ-46">
          <mxGeometry x="5" y="5" width="80" height="80" as="geometry" />
        </mxCell>
        <mxCell id="KtM1gwVQeg2r9AHxviMZ-48" value="6&lt;br style=&quot;font-size: 18px;&quot;&gt;————&lt;br style=&quot;font-size: 18px;&quot;&gt;40" style="text;html=1;align=center;verticalAlign=middle;resizable=0;points=[];autosize=1;strokeColor=none;fillColor=none;fontSize=18;strokeWidth=7;opacity=0;fontFamily=Helvetica;" vertex="1" parent="KtM1gwVQeg2r9AHxviMZ-46">
          <mxGeometry x="-5" y="5" width="100" height="80" as="geometry" />
        </mxCell>
        <mxCell id="KtM1gwVQeg2r9AHxviMZ-49" value="" style="group;fontSize=18;fontFamily=Helvetica;" vertex="1" connectable="0" parent="1">
          <mxGeometry x="622" y="665" width="95" height="90" as="geometry" />
        </mxCell>
        <mxCell id="KtM1gwVQeg2r9AHxviMZ-172" value="" style="endArrow=classic;html=1;rounded=0;" edge="1" parent="KtM1gwVQeg2r9AHxviMZ-49">
          <mxGeometry width="50" height="50" relative="1" as="geometry">
            <mxPoint x="73" y="46" as="sourcePoint" />
            <mxPoint x="113" y="46" as="targetPoint" />
          </mxGeometry>
        </mxCell>
        <mxCell id="KtM1gwVQeg2r9AHxviMZ-50" value="" style="rounded=0;whiteSpace=wrap;html=1;fillColor=default;fontSize=18;fontFamily=Helvetica;" vertex="1" parent="KtM1gwVQeg2r9AHxviMZ-49">
          <mxGeometry x="5" y="5" width="80" height="80" as="geometry" />
        </mxCell>
        <mxCell id="KtM1gwVQeg2r9AHxviMZ-51" value="11&lt;br style=&quot;font-size: 18px;&quot;&gt;————&lt;br style=&quot;font-size: 18px;&quot;&gt;50" style="text;html=1;align=center;verticalAlign=middle;resizable=0;points=[];autosize=1;strokeColor=none;fillColor=none;fontSize=18;strokeWidth=7;opacity=0;fontFamily=Helvetica;" vertex="1" parent="KtM1gwVQeg2r9AHxviMZ-49">
          <mxGeometry x="-5" y="5" width="100" height="80" as="geometry" />
        </mxCell>
        <mxCell id="KtM1gwVQeg2r9AHxviMZ-52" value="" style="group;fontSize=18;fontFamily=Helvetica;" vertex="1" connectable="0" parent="1">
          <mxGeometry x="730" y="665" width="95" height="90" as="geometry" />
        </mxCell>
        <mxCell id="KtM1gwVQeg2r9AHxviMZ-175" value="" style="endArrow=classic;html=1;rounded=0;" edge="1" parent="KtM1gwVQeg2r9AHxviMZ-52">
          <mxGeometry width="50" height="50" relative="1" as="geometry">
            <mxPoint x="77" y="46" as="sourcePoint" />
            <mxPoint x="117" y="46" as="targetPoint" />
          </mxGeometry>
        </mxCell>
        <mxCell id="KtM1gwVQeg2r9AHxviMZ-53" value="" style="rounded=0;whiteSpace=wrap;html=1;fillColor=default;fontSize=18;fontFamily=Helvetica;" vertex="1" parent="KtM1gwVQeg2r9AHxviMZ-52">
          <mxGeometry x="5" y="5" width="80" height="80" as="geometry" />
        </mxCell>
        <mxCell id="KtM1gwVQeg2r9AHxviMZ-54" value="12&lt;br style=&quot;font-size: 18px;&quot;&gt;————&lt;br style=&quot;font-size: 18px;&quot;&gt;60" style="text;html=1;align=center;verticalAlign=middle;resizable=0;points=[];autosize=1;strokeColor=none;fillColor=none;fontSize=18;strokeWidth=7;opacity=0;fontFamily=Helvetica;" vertex="1" parent="KtM1gwVQeg2r9AHxviMZ-52">
          <mxGeometry x="-5" y="5" width="100" height="80" as="geometry" />
        </mxCell>
        <mxCell id="KtM1gwVQeg2r9AHxviMZ-55" value="" style="group;fontSize=18;fontFamily=Helvetica;" vertex="1" connectable="0" parent="1">
          <mxGeometry x="842" y="665" width="95" height="90" as="geometry" />
        </mxCell>
        <mxCell id="KtM1gwVQeg2r9AHxviMZ-171" value="" style="endArrow=classic;html=1;rounded=0;" edge="1" parent="KtM1gwVQeg2r9AHxviMZ-55">
          <mxGeometry width="50" height="50" relative="1" as="geometry">
            <mxPoint x="73" y="45.47000000000003" as="sourcePoint" />
            <mxPoint x="113" y="45.47000000000003" as="targetPoint" />
          </mxGeometry>
        </mxCell>
        <mxCell id="KtM1gwVQeg2r9AHxviMZ-56" value="" style="rounded=0;whiteSpace=wrap;html=1;fillColor=default;fontSize=18;fontFamily=Helvetica;" vertex="1" parent="KtM1gwVQeg2r9AHxviMZ-55">
          <mxGeometry x="5" y="5" width="80" height="80" as="geometry" />
        </mxCell>
        <mxCell id="KtM1gwVQeg2r9AHxviMZ-57" value="19&lt;br style=&quot;font-size: 18px;&quot;&gt;————&lt;br style=&quot;font-size: 18px;&quot;&gt;70" style="text;html=1;align=center;verticalAlign=middle;resizable=0;points=[];autosize=1;strokeColor=none;fillColor=none;fontSize=18;strokeWidth=7;opacity=0;fontFamily=Helvetica;" vertex="1" parent="KtM1gwVQeg2r9AHxviMZ-55">
          <mxGeometry x="-5" y="5" width="100" height="80" as="geometry" />
        </mxCell>
        <mxCell id="KtM1gwVQeg2r9AHxviMZ-58" value="" style="group;fontSize=18;fontFamily=Helvetica;" vertex="1" connectable="0" parent="1">
          <mxGeometry x="950" y="665" width="95" height="90" as="geometry" />
        </mxCell>
        <mxCell id="KtM1gwVQeg2r9AHxviMZ-59" value="" style="rounded=0;whiteSpace=wrap;html=1;fillColor=default;fontSize=18;fontFamily=Helvetica;" vertex="1" parent="KtM1gwVQeg2r9AHxviMZ-58">
          <mxGeometry x="5" y="5" width="80" height="80" as="geometry" />
        </mxCell>
        <mxCell id="KtM1gwVQeg2r9AHxviMZ-60" value="1&lt;br style=&quot;font-size: 18px;&quot;&gt;————&lt;br style=&quot;font-size: 18px;&quot;&gt;80" style="text;html=1;align=center;verticalAlign=middle;resizable=0;points=[];autosize=1;strokeColor=none;fillColor=none;fontSize=18;strokeWidth=7;opacity=0;fontFamily=Helvetica;" vertex="1" parent="KtM1gwVQeg2r9AHxviMZ-58">
          <mxGeometry x="-5" y="5" width="100" height="80" as="geometry" />
        </mxCell>
        <mxCell id="KtM1gwVQeg2r9AHxviMZ-61" value="" style="group;fontSize=18;fontFamily=Helvetica;" vertex="1" connectable="0" parent="1">
          <mxGeometry x="1062" y="665" width="95" height="90" as="geometry" />
        </mxCell>
        <mxCell id="KtM1gwVQeg2r9AHxviMZ-62" value="" style="rounded=0;whiteSpace=wrap;html=1;fillColor=default;fontSize=18;fontFamily=Helvetica;" vertex="1" parent="KtM1gwVQeg2r9AHxviMZ-61">
          <mxGeometry x="5" y="5" width="80" height="80" as="geometry" />
        </mxCell>
        <mxCell id="KtM1gwVQeg2r9AHxviMZ-63" value="16&lt;br style=&quot;font-size: 18px;&quot;&gt;————&lt;br style=&quot;font-size: 18px;&quot;&gt;90" style="text;html=1;align=center;verticalAlign=middle;resizable=0;points=[];autosize=1;strokeColor=none;fillColor=none;fontSize=18;strokeWidth=7;opacity=0;fontFamily=Helvetica;" vertex="1" parent="KtM1gwVQeg2r9AHxviMZ-61">
          <mxGeometry x="-5" y="5" width="100" height="80" as="geometry" />
        </mxCell>
        <mxCell id="KtM1gwVQeg2r9AHxviMZ-64" value="" style="group;fontSize=18;fontFamily=Helvetica;" vertex="1" connectable="0" parent="1">
          <mxGeometry x="1172" y="665" width="95" height="90" as="geometry" />
        </mxCell>
        <mxCell id="KtM1gwVQeg2r9AHxviMZ-174" value="" style="endArrow=classic;html=1;rounded=0;" edge="1" parent="KtM1gwVQeg2r9AHxviMZ-64">
          <mxGeometry width="50" height="50" relative="1" as="geometry">
            <mxPoint x="73" y="45.47000000000003" as="sourcePoint" />
            <mxPoint x="113" y="45.47000000000003" as="targetPoint" />
          </mxGeometry>
        </mxCell>
        <mxCell id="KtM1gwVQeg2r9AHxviMZ-65" value="" style="rounded=0;whiteSpace=wrap;html=1;fillColor=default;fontSize=18;fontFamily=Helvetica;" vertex="1" parent="KtM1gwVQeg2r9AHxviMZ-64">
          <mxGeometry x="5" y="5" width="80" height="80" as="geometry" />
        </mxCell>
        <mxCell id="KtM1gwVQeg2r9AHxviMZ-66" value="5&lt;br style=&quot;font-size: 18px;&quot;&gt;————&lt;br style=&quot;font-size: 18px;&quot;&gt;100" style="text;html=1;align=center;verticalAlign=middle;resizable=0;points=[];autosize=1;strokeColor=none;fillColor=none;fontSize=18;strokeWidth=7;opacity=0;fontFamily=Helvetica;" vertex="1" parent="KtM1gwVQeg2r9AHxviMZ-64">
          <mxGeometry x="-5" y="5" width="100" height="80" as="geometry" />
        </mxCell>
        <mxCell id="KtM1gwVQeg2r9AHxviMZ-67" value="" style="group;fontSize=18;fontFamily=Helvetica;" vertex="1" connectable="0" parent="1">
          <mxGeometry x="1280" y="665" width="95" height="90" as="geometry" />
        </mxCell>
        <mxCell id="KtM1gwVQeg2r9AHxviMZ-68" value="" style="rounded=0;whiteSpace=wrap;html=1;fillColor=default;fontSize=18;fontFamily=Helvetica;" vertex="1" parent="KtM1gwVQeg2r9AHxviMZ-67">
          <mxGeometry x="5" y="5" width="80" height="80" as="geometry" />
        </mxCell>
        <mxCell id="KtM1gwVQeg2r9AHxviMZ-69" value="6&lt;br style=&quot;font-size: 18px;&quot;&gt;————&lt;br style=&quot;font-size: 18px;&quot;&gt;110" style="text;html=1;align=center;verticalAlign=middle;resizable=0;points=[];autosize=1;strokeColor=none;fillColor=none;fontSize=18;strokeWidth=7;opacity=0;fontFamily=Helvetica;" vertex="1" parent="KtM1gwVQeg2r9AHxviMZ-67">
          <mxGeometry x="-5" y="5" width="100" height="80" as="geometry" />
        </mxCell>
        <mxCell id="KtM1gwVQeg2r9AHxviMZ-70" value="" style="group;fontSize=18;fontFamily=Helvetica;" vertex="1" connectable="0" parent="1">
          <mxGeometry x="1390" y="665" width="95" height="90" as="geometry" />
        </mxCell>
        <mxCell id="KtM1gwVQeg2r9AHxviMZ-185" value="" style="endArrow=classic;html=1;rounded=0;" edge="1" parent="KtM1gwVQeg2r9AHxviMZ-70">
          <mxGeometry width="50" height="50" relative="1" as="geometry">
            <mxPoint x="75" y="46.47" as="sourcePoint" />
            <mxPoint x="115" y="46.47" as="targetPoint" />
          </mxGeometry>
        </mxCell>
        <mxCell id="KtM1gwVQeg2r9AHxviMZ-71" value="" style="rounded=0;whiteSpace=wrap;html=1;fillColor=default;fontSize=18;fontFamily=Helvetica;" vertex="1" parent="KtM1gwVQeg2r9AHxviMZ-70">
          <mxGeometry x="5" y="5" width="80" height="80" as="geometry" />
        </mxCell>
        <mxCell id="KtM1gwVQeg2r9AHxviMZ-72" value="11&lt;br style=&quot;font-size: 18px;&quot;&gt;————&lt;br style=&quot;font-size: 18px;&quot;&gt;120" style="text;html=1;align=center;verticalAlign=middle;resizable=0;points=[];autosize=1;strokeColor=none;fillColor=none;fontSize=18;strokeWidth=7;opacity=0;fontFamily=Helvetica;" vertex="1" parent="KtM1gwVQeg2r9AHxviMZ-70">
          <mxGeometry x="-5" y="5" width="100" height="80" as="geometry" />
        </mxCell>
        <mxCell id="KtM1gwVQeg2r9AHxviMZ-73" value="" style="group;fontSize=18;fontFamily=Helvetica;" vertex="1" connectable="0" parent="1">
          <mxGeometry x="1500" y="665" width="95" height="90" as="geometry" />
        </mxCell>
        <mxCell id="KtM1gwVQeg2r9AHxviMZ-178" value="" style="endArrow=classic;html=1;rounded=0;" edge="1" parent="KtM1gwVQeg2r9AHxviMZ-73">
          <mxGeometry width="50" height="50" relative="1" as="geometry">
            <mxPoint x="75" y="46.47000000000003" as="sourcePoint" />
            <mxPoint x="115" y="46.47000000000003" as="targetPoint" />
          </mxGeometry>
        </mxCell>
        <mxCell id="KtM1gwVQeg2r9AHxviMZ-74" value="" style="rounded=0;whiteSpace=wrap;html=1;fillColor=default;fontSize=18;fontFamily=Helvetica;" vertex="1" parent="KtM1gwVQeg2r9AHxviMZ-73">
          <mxGeometry x="5" y="5" width="80" height="80" as="geometry" />
        </mxCell>
        <mxCell id="KtM1gwVQeg2r9AHxviMZ-75" value="0&lt;br style=&quot;font-size: 18px;&quot;&gt;————&lt;br style=&quot;font-size: 18px;&quot;&gt;130" style="text;html=1;align=center;verticalAlign=middle;resizable=0;points=[];autosize=1;strokeColor=none;fillColor=none;fontSize=18;strokeWidth=7;opacity=0;fontFamily=Helvetica;" vertex="1" parent="KtM1gwVQeg2r9AHxviMZ-73">
          <mxGeometry x="-5" y="5" width="100" height="80" as="geometry" />
        </mxCell>
        <mxCell id="KtM1gwVQeg2r9AHxviMZ-76" value="" style="group;fontSize=18;fontFamily=Helvetica;" vertex="1" connectable="0" parent="1">
          <mxGeometry x="1610" y="665" width="95" height="90" as="geometry" />
        </mxCell>
        <mxCell id="KtM1gwVQeg2r9AHxviMZ-77" value="" style="rounded=0;whiteSpace=wrap;html=1;fillColor=default;fontSize=18;fontFamily=Helvetica;" vertex="1" parent="KtM1gwVQeg2r9AHxviMZ-76">
          <mxGeometry x="5" y="5" width="80" height="80" as="geometry" />
        </mxCell>
        <mxCell id="KtM1gwVQeg2r9AHxviMZ-78" value="17&lt;br style=&quot;font-size: 18px;&quot;&gt;————&lt;br style=&quot;font-size: 18px;&quot;&gt;140" style="text;html=1;align=center;verticalAlign=middle;resizable=0;points=[];autosize=1;strokeColor=none;fillColor=none;fontSize=18;strokeWidth=7;opacity=0;fontFamily=Helvetica;" vertex="1" parent="KtM1gwVQeg2r9AHxviMZ-76">
          <mxGeometry x="-5" y="5" width="100" height="80" as="geometry" />
        </mxCell>
        <mxCell id="KtM1gwVQeg2r9AHxviMZ-79" value="" style="group;fontSize=18;fontFamily=Helvetica;" vertex="1" connectable="0" parent="1">
          <mxGeometry x="1720" y="665" width="95" height="90" as="geometry" />
        </mxCell>
        <mxCell id="KtM1gwVQeg2r9AHxviMZ-166" value="" style="endArrow=classic;html=1;rounded=0;entryX=0.034;entryY=0.624;entryDx=0;entryDy=0;entryPerimeter=0;endSize=8;" edge="1" parent="KtM1gwVQeg2r9AHxviMZ-79">
          <mxGeometry width="50" height="50" relative="1" as="geometry">
            <mxPoint x="76" y="46" as="sourcePoint" />
            <mxPoint x="114.51333333333287" y="46.48000000000005" as="targetPoint" />
          </mxGeometry>
        </mxCell>
        <mxCell id="KtM1gwVQeg2r9AHxviMZ-80" value="" style="rounded=0;whiteSpace=wrap;html=1;fillColor=default;fontSize=18;fontFamily=Helvetica;" vertex="1" parent="KtM1gwVQeg2r9AHxviMZ-79">
          <mxGeometry x="5" y="5" width="80" height="80" as="geometry" />
        </mxCell>
        <mxCell id="KtM1gwVQeg2r9AHxviMZ-81" value="12&lt;br style=&quot;font-size: 18px;&quot;&gt;————&lt;br style=&quot;font-size: 18px;&quot;&gt;150" style="text;html=1;align=center;verticalAlign=middle;resizable=0;points=[];autosize=1;strokeColor=none;fillColor=none;fontSize=18;strokeWidth=7;opacity=0;fontFamily=Helvetica;" vertex="1" parent="KtM1gwVQeg2r9AHxviMZ-79">
          <mxGeometry x="-5" y="5" width="100" height="80" as="geometry" />
        </mxCell>
        <mxCell id="KtM1gwVQeg2r9AHxviMZ-82" value="" style="group;fontSize=18;fontFamily=Helvetica;" vertex="1" connectable="0" parent="1">
          <mxGeometry x="1830" y="665" width="60" height="90" as="geometry" />
        </mxCell>
        <mxCell id="KtM1gwVQeg2r9AHxviMZ-83" value="" style="rounded=0;whiteSpace=wrap;html=1;fillColor=default;fontSize=18;fontFamily=Helvetica;" vertex="1" parent="KtM1gwVQeg2r9AHxviMZ-82">
          <mxGeometry x="3.333333333333333" y="5" width="53.33333333333333" height="80" as="geometry" />
        </mxCell>
        <mxCell id="KtM1gwVQeg2r9AHxviMZ-84" value="null" style="text;html=1;align=center;verticalAlign=middle;resizable=0;points=[];autosize=1;strokeColor=none;fillColor=none;fontSize=18;strokeWidth=7;opacity=0;fontFamily=Helvetica;" vertex="1" parent="KtM1gwVQeg2r9AHxviMZ-82">
          <mxGeometry x="5.333333333333332" y="25" width="50" height="40" as="geometry" />
        </mxCell>
        <mxCell id="KtM1gwVQeg2r9AHxviMZ-91" value="" style="endArrow=classic;html=1;rounded=0;endSize=8;jumpSize=13;entryX=0;entryY=0.5;entryDx=0;entryDy=0;fontFamily=Helvetica;" edge="1" parent="1" target="KtM1gwVQeg2r9AHxviMZ-86">
          <mxGeometry width="50" height="50" relative="1" as="geometry">
            <mxPoint x="180" y="594" as="sourcePoint" />
            <mxPoint x="210" y="509" as="targetPoint" />
          </mxGeometry>
        </mxCell>
        <mxCell id="KtM1gwVQeg2r9AHxviMZ-97" value="" style="group;fontSize=18;fontFamily=Helvetica;" vertex="1" connectable="0" parent="1">
          <mxGeometry x="514" y="549" width="95" height="90" as="geometry" />
        </mxCell>
        <mxCell id="KtM1gwVQeg2r9AHxviMZ-98" value="" style="rounded=0;whiteSpace=wrap;html=1;fillColor=default;fontSize=18;fontFamily=Helvetica;" vertex="1" parent="KtM1gwVQeg2r9AHxviMZ-97">
          <mxGeometry x="5" y="5" width="80" height="80" as="geometry" />
        </mxCell>
        <mxCell id="KtM1gwVQeg2r9AHxviMZ-99" value="&lt;div&gt;&lt;span style=&quot;text-align: start;&quot;&gt;&lt;font style=&quot;background-color: rgb(251, 251, 251);&quot;&gt;2&lt;/font&gt;&lt;font style=&quot;color: rgb(32, 33, 34); text-wrap: wrap; background-color: rgb(255, 255, 255); font-size: 23px;&quot;&gt;丨&lt;/font&gt;&lt;font style=&quot;color: rgb(32, 33, 34); text-wrap: wrap; background-color: rgb(255, 255, 255); font-size: 18px;&quot;&gt;21&lt;/font&gt;&lt;/span&gt;&lt;/div&gt;————&lt;br&gt;&lt;span style=&quot;text-wrap: wrap; text-align: start; background-color: rgb(255, 255, 255);&quot;&gt;&lt;font color=&quot;#474747&quot;&gt;6&lt;/font&gt;&lt;/span&gt;&lt;span style=&quot;text-wrap: wrap; color: rgb(32, 33, 34); text-align: start; background-color: rgb(255, 255, 255);&quot;&gt;&lt;font style=&quot;font-size: 23px;&quot;&gt;丨&lt;/font&gt;&lt;font style=&quot;font-size: 18px;&quot;&gt;15&lt;/font&gt;&lt;/span&gt;" style="text;html=1;align=center;verticalAlign=middle;resizable=0;points=[];autosize=1;strokeColor=none;fillColor=none;fontSize=18;strokeWidth=7;opacity=0;fontFamily=Helvetica;" vertex="1" parent="KtM1gwVQeg2r9AHxviMZ-97">
          <mxGeometry x="-5" width="100" height="90" as="geometry" />
        </mxCell>
        <mxCell id="KtM1gwVQeg2r9AHxviMZ-100" value="" style="group;fontSize=18;fontFamily=Helvetica;" vertex="1" connectable="0" parent="1">
          <mxGeometry x="302" y="549" width="95" height="90" as="geometry" />
        </mxCell>
        <mxCell id="KtM1gwVQeg2r9AHxviMZ-224" value="" style="endArrow=classic;html=1;rounded=0;exitX=0.5;exitY=0.937;exitDx=0;exitDy=0;exitPerimeter=0;endSize=8;" edge="1" parent="KtM1gwVQeg2r9AHxviMZ-100">
          <mxGeometry width="50" height="50" relative="1" as="geometry">
            <mxPoint x="44.51999999999998" y="82" as="sourcePoint" />
            <mxPoint x="44.51999999999998" y="121" as="targetPoint" />
          </mxGeometry>
        </mxCell>
        <mxCell id="KtM1gwVQeg2r9AHxviMZ-101" value="" style="rounded=0;whiteSpace=wrap;html=1;fillColor=default;fontSize=18;fontFamily=Helvetica;" vertex="1" parent="KtM1gwVQeg2r9AHxviMZ-100">
          <mxGeometry x="5" y="5" width="80" height="80" as="geometry" />
        </mxCell>
        <mxCell id="KtM1gwVQeg2r9AHxviMZ-102" value="&lt;div&gt;&lt;span style=&quot;text-align: start;&quot;&gt;1&lt;/span&gt;&lt;span style=&quot;text-wrap: wrap; color: rgb(32, 33, 34); text-align: start; background-color: rgb(255, 255, 255);&quot;&gt;&lt;font style=&quot;font-size: 23px;&quot;&gt;丨&lt;/font&gt;&lt;font style=&quot;font-size: 18px;&quot;&gt;6&lt;/font&gt;&lt;/span&gt;&lt;/div&gt;————&lt;br&gt;&lt;span style=&quot;text-wrap: wrap; text-align: start; background-color: rgb(255, 255, 255);&quot;&gt;&lt;font color=&quot;#474747&quot;&gt;6&lt;/font&gt;&lt;/span&gt;&lt;span style=&quot;text-wrap: wrap; color: rgb(32, 33, 34); text-align: start; background-color: rgb(255, 255, 255);&quot;&gt;&lt;font style=&quot;font-size: 23px;&quot;&gt;丨&lt;/font&gt;&lt;font style=&quot;font-size: 18px;&quot;&gt;6&lt;/font&gt;&lt;/span&gt;" style="text;html=1;align=center;verticalAlign=middle;resizable=0;points=[];autosize=1;strokeColor=none;fillColor=none;fontSize=18;strokeWidth=7;opacity=0;fontFamily=Helvetica;" vertex="1" parent="KtM1gwVQeg2r9AHxviMZ-100">
          <mxGeometry x="-5" width="100" height="90" as="geometry" />
        </mxCell>
        <mxCell id="KtM1gwVQeg2r9AHxviMZ-105" value="" style="group;fontSize=18;fontFamily=Helvetica;" vertex="1" connectable="0" parent="1">
          <mxGeometry x="730" y="549" width="95" height="90" as="geometry" />
        </mxCell>
        <mxCell id="KtM1gwVQeg2r9AHxviMZ-106" value="" style="rounded=0;whiteSpace=wrap;html=1;fillColor=default;fontSize=18;fontFamily=Helvetica;" vertex="1" parent="KtM1gwVQeg2r9AHxviMZ-105">
          <mxGeometry x="5" y="5" width="80" height="80" as="geometry" />
        </mxCell>
        <mxCell id="KtM1gwVQeg2r9AHxviMZ-107" value="&lt;div&gt;&lt;span style=&quot;text-align: start; background-color: rgb(251, 251, 251);&quot;&gt;2&lt;/span&gt;&lt;span style=&quot;text-wrap: wrap; color: rgb(32, 33, 34); text-align: start; background-color: rgb(255, 255, 255);&quot;&gt;&lt;font style=&quot;font-size: 23px;&quot;&gt;丨&lt;/font&gt;&lt;font style=&quot;font-size: 18px;&quot;&gt;23&lt;/font&gt;&lt;/span&gt;&lt;/div&gt;————&lt;br&gt;&lt;span style=&quot;text-wrap: wrap; text-align: start; background-color: rgb(255, 255, 255);&quot;&gt;&lt;font color=&quot;#474747&quot;&gt;11&lt;/font&gt;&lt;/span&gt;&lt;span style=&quot;text-wrap: wrap; color: rgb(32, 33, 34); text-align: start; background-color: rgb(255, 255, 255);&quot;&gt;&lt;font style=&quot;font-size: 23px;&quot;&gt;丨&lt;/font&gt;&lt;font style=&quot;font-size: 18px;&quot;&gt;12&lt;/font&gt;&lt;/span&gt;" style="text;html=1;align=center;verticalAlign=middle;resizable=0;points=[];autosize=1;strokeColor=none;fillColor=none;fontSize=18;strokeWidth=7;opacity=0;fontFamily=Helvetica;" vertex="1" parent="KtM1gwVQeg2r9AHxviMZ-105">
          <mxGeometry x="-5" width="100" height="90" as="geometry" />
        </mxCell>
        <mxCell id="KtM1gwVQeg2r9AHxviMZ-108" value="" style="group;fontSize=18;fontFamily=Helvetica;" vertex="1" connectable="0" parent="1">
          <mxGeometry x="842" y="549" width="95" height="90" as="geometry" />
        </mxCell>
        <mxCell id="KtM1gwVQeg2r9AHxviMZ-109" value="" style="rounded=0;whiteSpace=wrap;html=1;fillColor=default;fontSize=18;fontFamily=Helvetica;" vertex="1" parent="KtM1gwVQeg2r9AHxviMZ-108">
          <mxGeometry x="5" y="5" width="80" height="80" as="geometry" />
        </mxCell>
        <mxCell id="KtM1gwVQeg2r9AHxviMZ-110" value="&lt;div&gt;&lt;span style=&quot;text-align: start; background-color: rgb(251, 251, 251);&quot;&gt;1&lt;/span&gt;&lt;span style=&quot;text-wrap: wrap; color: rgb(32, 33, 34); text-align: start; background-color: rgb(255, 255, 255);&quot;&gt;&lt;font style=&quot;font-size: 23px;&quot;&gt;丨&lt;/font&gt;&lt;font style=&quot;font-size: 18px;&quot;&gt;19&lt;/font&gt;&lt;/span&gt;&lt;/div&gt;————&lt;br&gt;&lt;span style=&quot;text-wrap: wrap; text-align: start; background-color: rgb(255, 255, 255);&quot;&gt;&lt;font color=&quot;#474747&quot;&gt;19&lt;/font&gt;&lt;/span&gt;&lt;span style=&quot;text-wrap: wrap; color: rgb(32, 33, 34); text-align: start; background-color: rgb(255, 255, 255);&quot;&gt;&lt;font style=&quot;font-size: 23px;&quot;&gt;丨&lt;/font&gt;&lt;font style=&quot;font-size: 18px;&quot;&gt;19&lt;/font&gt;&lt;/span&gt;" style="text;html=1;align=center;verticalAlign=middle;resizable=0;points=[];autosize=1;strokeColor=none;fillColor=none;fontSize=18;strokeWidth=7;opacity=0;fontFamily=Helvetica;" vertex="1" parent="KtM1gwVQeg2r9AHxviMZ-108">
          <mxGeometry x="-5" width="100" height="90" as="geometry" />
        </mxCell>
        <mxCell id="KtM1gwVQeg2r9AHxviMZ-111" value="" style="group;fontSize=18;fontFamily=Helvetica;" vertex="1" connectable="0" parent="1">
          <mxGeometry x="1062" y="549" width="95" height="90" as="geometry" />
        </mxCell>
        <mxCell id="KtM1gwVQeg2r9AHxviMZ-112" value="" style="rounded=0;whiteSpace=wrap;html=1;fillColor=default;fontSize=18;fontFamily=Helvetica;" vertex="1" parent="KtM1gwVQeg2r9AHxviMZ-111">
          <mxGeometry x="5" y="5" width="80" height="80" as="geometry" />
        </mxCell>
        <mxCell id="KtM1gwVQeg2r9AHxviMZ-113" value="&lt;div&gt;&lt;span style=&quot;text-align: start; background-color: rgb(251, 251, 251);&quot;&gt;2&lt;/span&gt;&lt;span style=&quot;text-wrap: wrap; color: rgb(32, 33, 34); text-align: start; background-color: rgb(255, 255, 255);&quot;&gt;&lt;font style=&quot;font-size: 23px;&quot;&gt;丨&lt;/font&gt;&lt;font style=&quot;font-size: 18px;&quot;&gt;17&lt;/font&gt;&lt;/span&gt;&lt;/div&gt;————&lt;br&gt;&lt;span style=&quot;text-wrap: wrap; text-align: start; background-color: rgb(255, 255, 255);&quot;&gt;&lt;font color=&quot;#474747&quot;&gt;1&lt;/font&gt;&lt;/span&gt;&lt;span style=&quot;text-wrap: wrap; color: rgb(32, 33, 34); text-align: start; background-color: rgb(255, 255, 255);&quot;&gt;&lt;font style=&quot;font-size: 23px;&quot;&gt;丨&lt;/font&gt;&lt;font style=&quot;font-size: 18px;&quot;&gt;16&lt;/font&gt;&lt;/span&gt;" style="text;html=1;align=center;verticalAlign=middle;resizable=0;points=[];autosize=1;strokeColor=none;fillColor=none;fontSize=18;strokeWidth=7;opacity=0;fontFamily=Helvetica;" vertex="1" parent="KtM1gwVQeg2r9AHxviMZ-111">
          <mxGeometry x="-5" width="100" height="90" as="geometry" />
        </mxCell>
        <mxCell id="KtM1gwVQeg2r9AHxviMZ-114" value="" style="group;fontSize=18;fontFamily=Helvetica;" vertex="1" connectable="0" parent="1">
          <mxGeometry x="1280" y="549" width="95" height="90" as="geometry" />
        </mxCell>
        <mxCell id="KtM1gwVQeg2r9AHxviMZ-115" value="" style="rounded=0;whiteSpace=wrap;html=1;fillColor=default;fontSize=18;fontFamily=Helvetica;" vertex="1" parent="KtM1gwVQeg2r9AHxviMZ-114">
          <mxGeometry x="5" y="5" width="80" height="80" as="geometry" />
        </mxCell>
        <mxCell id="KtM1gwVQeg2r9AHxviMZ-116" value="&lt;div&gt;&lt;span style=&quot;text-align: start; background-color: rgb(251, 251, 251);&quot;&gt;2&lt;/span&gt;&lt;span style=&quot;text-wrap: wrap; color: rgb(32, 33, 34); text-align: start; background-color: rgb(255, 255, 255);&quot;&gt;&lt;font style=&quot;font-size: 23px;&quot;&gt;丨&lt;/font&gt;&lt;font style=&quot;font-size: 18px;&quot;&gt;11&lt;/font&gt;&lt;/span&gt;&lt;/div&gt;————&lt;br&gt;&lt;span style=&quot;text-wrap: wrap; text-align: start; background-color: rgb(255, 255, 255);&quot;&gt;&lt;font color=&quot;#474747&quot;&gt;5&lt;/font&gt;&lt;/span&gt;&lt;span style=&quot;text-wrap: wrap; color: rgb(32, 33, 34); text-align: start; background-color: rgb(255, 255, 255);&quot;&gt;&lt;font style=&quot;font-size: 23px;&quot;&gt;丨&lt;/font&gt;&lt;font style=&quot;font-size: 18px;&quot;&gt;6&lt;/font&gt;&lt;/span&gt;" style="text;html=1;align=center;verticalAlign=middle;resizable=0;points=[];autosize=1;strokeColor=none;fillColor=none;fontSize=18;strokeWidth=7;opacity=0;fontFamily=Helvetica;" vertex="1" parent="KtM1gwVQeg2r9AHxviMZ-114">
          <mxGeometry x="-5" width="100" height="90" as="geometry" />
        </mxCell>
        <mxCell id="KtM1gwVQeg2r9AHxviMZ-117" value="" style="group;fontSize=18;fontFamily=Helvetica;" vertex="1" connectable="0" parent="1">
          <mxGeometry x="1500" y="549" width="95" height="90" as="geometry" />
        </mxCell>
        <mxCell id="KtM1gwVQeg2r9AHxviMZ-165" value="" style="endArrow=classic;html=1;rounded=0;endSize=8;" edge="1" parent="KtM1gwVQeg2r9AHxviMZ-117">
          <mxGeometry width="50" height="50" relative="1" as="geometry">
            <mxPoint x="79" y="46" as="sourcePoint" />
            <mxPoint x="116" y="46.230000000000004" as="targetPoint" />
          </mxGeometry>
        </mxCell>
        <mxCell id="KtM1gwVQeg2r9AHxviMZ-118" value="" style="rounded=0;whiteSpace=wrap;html=1;fillColor=default;fontSize=18;fontFamily=Helvetica;" vertex="1" parent="KtM1gwVQeg2r9AHxviMZ-117">
          <mxGeometry x="5" y="5" width="80" height="80" as="geometry" />
        </mxCell>
        <mxCell id="KtM1gwVQeg2r9AHxviMZ-119" value="&lt;div&gt;&lt;span style=&quot;text-align: start; background-color: rgb(251, 251, 251);&quot;&gt;2&lt;/span&gt;&lt;span style=&quot;text-wrap: wrap; color: rgb(32, 33, 34); text-align: start; background-color: rgb(255, 255, 255);&quot;&gt;&lt;font style=&quot;font-size: 23px;&quot;&gt;丨&lt;/font&gt;&lt;font style=&quot;font-size: 18px;&quot;&gt;11&lt;/font&gt;&lt;/span&gt;&lt;/div&gt;————&lt;br&gt;&lt;span style=&quot;text-wrap: wrap; text-align: start; background-color: rgb(255, 255, 255);&quot;&gt;&lt;font style=&quot;&quot; color=&quot;#474747&quot;&gt;1&lt;/font&gt;&lt;font style=&quot;color: rgb(32, 33, 34); font-size: 23px;&quot;&gt;丨&lt;/font&gt;&lt;font style=&quot;color: rgb(32, 33, 34); font-size: 18px;&quot;&gt;11&lt;/font&gt;&lt;/span&gt;" style="text;html=1;align=center;verticalAlign=middle;resizable=0;points=[];autosize=1;strokeColor=none;fillColor=none;fontSize=18;strokeWidth=7;opacity=0;fontFamily=Helvetica;" vertex="1" parent="KtM1gwVQeg2r9AHxviMZ-117">
          <mxGeometry x="-5" width="100" height="90" as="geometry" />
        </mxCell>
        <mxCell id="KtM1gwVQeg2r9AHxviMZ-120" value="" style="group;fontSize=18;fontFamily=Helvetica;" vertex="1" connectable="0" parent="1">
          <mxGeometry x="1610" y="549" width="95" height="90" as="geometry" />
        </mxCell>
        <mxCell id="KtM1gwVQeg2r9AHxviMZ-121" value="" style="rounded=0;whiteSpace=wrap;html=1;fillColor=default;fontSize=18;fontFamily=Helvetica;" vertex="1" parent="KtM1gwVQeg2r9AHxviMZ-120">
          <mxGeometry x="5" y="5" width="80" height="80" as="geometry" />
        </mxCell>
        <mxCell id="KtM1gwVQeg2r9AHxviMZ-122" value="&lt;div&gt;&lt;span style=&quot;text-align: start;&quot;&gt;&lt;font style=&quot;background-color: rgb(251, 251, 251);&quot;&gt;1&lt;/font&gt;&lt;font style=&quot;color: rgb(32, 33, 34); text-wrap: wrap; background-color: rgb(255, 255, 255); font-size: 23px;&quot;&gt;丨&lt;/font&gt;&lt;span style=&quot;color: rgb(32, 33, 34); text-wrap: wrap; background-color: rgb(255, 255, 255);&quot;&gt;&lt;font style=&quot;font-size: 18px;&quot;&gt;17&lt;/font&gt;&lt;/span&gt;&lt;/span&gt;&lt;/div&gt;————&lt;br&gt;&lt;span style=&quot;text-wrap: wrap; text-align: start; background-color: rgb(255, 255, 255);&quot;&gt;&lt;font style=&quot;&quot; color=&quot;#474747&quot;&gt;17&lt;/font&gt;&lt;font style=&quot;color: rgb(32, 33, 34); font-size: 23px;&quot;&gt;丨&lt;/font&gt;&lt;font style=&quot;color: rgb(32, 33, 34); font-size: 18px;&quot;&gt;17&lt;/font&gt;&lt;/span&gt;" style="text;html=1;align=center;verticalAlign=middle;resizable=0;points=[];autosize=1;strokeColor=none;fillColor=none;fontSize=18;strokeWidth=7;opacity=0;fontFamily=Helvetica;" vertex="1" parent="KtM1gwVQeg2r9AHxviMZ-120">
          <mxGeometry x="-5" width="100" height="90" as="geometry" />
        </mxCell>
        <mxCell id="KtM1gwVQeg2r9AHxviMZ-123" value="" style="group;fontSize=18;fontFamily=Helvetica;" vertex="1" connectable="0" parent="1">
          <mxGeometry x="1610" y="431" width="95" height="90" as="geometry" />
        </mxCell>
        <mxCell id="KtM1gwVQeg2r9AHxviMZ-124" value="" style="rounded=0;whiteSpace=wrap;html=1;fillColor=default;fontSize=18;fontFamily=Helvetica;" vertex="1" parent="KtM1gwVQeg2r9AHxviMZ-123">
          <mxGeometry x="5" y="5" width="80" height="80" as="geometry" />
        </mxCell>
        <mxCell id="KtM1gwVQeg2r9AHxviMZ-125" value="&lt;div&gt;&lt;span style=&quot;text-align: start;&quot;&gt;&lt;font style=&quot;background-color: rgb(251, 251, 251);&quot;&gt;1&lt;/font&gt;&lt;font style=&quot;color: rgb(32, 33, 34); text-wrap: wrap; background-color: rgb(255, 255, 255); font-size: 23px;&quot;&gt;丨&lt;/font&gt;&lt;span style=&quot;color: rgb(32, 33, 34); text-wrap: wrap; background-color: rgb(255, 255, 255);&quot;&gt;&lt;font style=&quot;font-size: 18px;&quot;&gt;17&lt;/font&gt;&lt;/span&gt;&lt;/span&gt;&lt;/div&gt;————&lt;br&gt;&lt;span style=&quot;text-wrap: wrap; text-align: start; background-color: rgb(255, 255, 255);&quot;&gt;&lt;font style=&quot;&quot; color=&quot;#474747&quot;&gt;17&lt;/font&gt;&lt;font style=&quot;color: rgb(32, 33, 34); font-size: 23px;&quot;&gt;丨&lt;/font&gt;&lt;font style=&quot;color: rgb(32, 33, 34); font-size: 18px;&quot;&gt;17&lt;/font&gt;&lt;/span&gt;" style="text;html=1;align=center;verticalAlign=middle;resizable=0;points=[];autosize=1;strokeColor=none;fillColor=none;fontSize=18;strokeWidth=7;opacity=0;fontFamily=Helvetica;" vertex="1" parent="KtM1gwVQeg2r9AHxviMZ-123">
          <mxGeometry x="-5" width="100" height="90" as="geometry" />
        </mxCell>
        <mxCell id="KtM1gwVQeg2r9AHxviMZ-126" value="" style="group;fontSize=18;fontFamily=Helvetica;" vertex="1" connectable="0" parent="1">
          <mxGeometry x="1500" y="431" width="95" height="90" as="geometry" />
        </mxCell>
        <mxCell id="KtM1gwVQeg2r9AHxviMZ-127" value="" style="rounded=0;whiteSpace=wrap;html=1;fillColor=default;fontSize=18;fontFamily=Helvetica;" vertex="1" parent="KtM1gwVQeg2r9AHxviMZ-126">
          <mxGeometry x="5" y="5" width="80" height="80" as="geometry" />
        </mxCell>
        <mxCell id="KtM1gwVQeg2r9AHxviMZ-128" value="&lt;div&gt;&lt;span style=&quot;text-align: start; background-color: rgb(251, 251, 251);&quot;&gt;2&lt;/span&gt;&lt;span style=&quot;text-wrap: wrap; color: rgb(32, 33, 34); text-align: start; background-color: rgb(255, 255, 255);&quot;&gt;&lt;font style=&quot;font-size: 23px;&quot;&gt;丨&lt;/font&gt;&lt;font style=&quot;font-size: 18px;&quot;&gt;11&lt;/font&gt;&lt;/span&gt;&lt;/div&gt;————&lt;br&gt;&lt;span style=&quot;text-wrap: wrap; text-align: start; background-color: rgb(255, 255, 255);&quot;&gt;&lt;font style=&quot;&quot; color=&quot;#474747&quot;&gt;1&lt;/font&gt;&lt;font style=&quot;color: rgb(32, 33, 34); font-size: 23px;&quot;&gt;丨&lt;/font&gt;&lt;font style=&quot;color: rgb(32, 33, 34); font-size: 18px;&quot;&gt;11&lt;/font&gt;&lt;/span&gt;" style="text;html=1;align=center;verticalAlign=middle;resizable=0;points=[];autosize=1;strokeColor=none;fillColor=none;fontSize=18;strokeWidth=7;opacity=0;fontFamily=Helvetica;" vertex="1" parent="KtM1gwVQeg2r9AHxviMZ-126">
          <mxGeometry x="-5" width="100" height="90" as="geometry" />
        </mxCell>
        <mxCell id="KtM1gwVQeg2r9AHxviMZ-129" value="" style="group;fontSize=18;fontFamily=Helvetica;" vertex="1" connectable="0" parent="1">
          <mxGeometry x="1830" y="549" width="60" height="90" as="geometry" />
        </mxCell>
        <mxCell id="KtM1gwVQeg2r9AHxviMZ-130" value="" style="rounded=0;whiteSpace=wrap;html=1;fillColor=default;fontSize=18;fontFamily=Helvetica;" vertex="1" parent="KtM1gwVQeg2r9AHxviMZ-129">
          <mxGeometry x="3.333333333333333" y="5" width="53.33333333333333" height="80" as="geometry" />
        </mxCell>
        <mxCell id="KtM1gwVQeg2r9AHxviMZ-131" value="null" style="text;html=1;align=center;verticalAlign=middle;resizable=0;points=[];autosize=1;strokeColor=none;fillColor=none;fontSize=18;strokeWidth=7;opacity=0;fontFamily=Helvetica;" vertex="1" parent="KtM1gwVQeg2r9AHxviMZ-129">
          <mxGeometry x="5.333333333333332" y="25" width="50" height="40" as="geometry" />
        </mxCell>
        <mxCell id="KtM1gwVQeg2r9AHxviMZ-132" value="" style="group;fontSize=18;fontFamily=Helvetica;" vertex="1" connectable="0" parent="1">
          <mxGeometry x="1830" y="431" width="60" height="90" as="geometry" />
        </mxCell>
        <mxCell id="KtM1gwVQeg2r9AHxviMZ-133" value="" style="rounded=0;whiteSpace=wrap;html=1;fillColor=default;fontSize=18;fontFamily=Helvetica;" vertex="1" parent="KtM1gwVQeg2r9AHxviMZ-132">
          <mxGeometry x="3.333333333333333" y="5" width="53.33333333333333" height="80" as="geometry" />
        </mxCell>
        <mxCell id="KtM1gwVQeg2r9AHxviMZ-134" value="null" style="text;html=1;align=center;verticalAlign=middle;resizable=0;points=[];autosize=1;strokeColor=none;fillColor=none;fontSize=18;strokeWidth=7;opacity=0;fontFamily=Helvetica;" vertex="1" parent="KtM1gwVQeg2r9AHxviMZ-132">
          <mxGeometry x="5.333333333333332" y="25" width="50" height="40" as="geometry" />
        </mxCell>
        <mxCell id="KtM1gwVQeg2r9AHxviMZ-135" value="" style="group;fontSize=18;fontFamily=Helvetica;" vertex="1" connectable="0" parent="1">
          <mxGeometry x="1830" y="317" width="60" height="90" as="geometry" />
        </mxCell>
        <mxCell id="KtM1gwVQeg2r9AHxviMZ-136" value="" style="rounded=0;whiteSpace=wrap;html=1;fillColor=default;fontSize=18;fontFamily=Helvetica;" vertex="1" parent="KtM1gwVQeg2r9AHxviMZ-135">
          <mxGeometry x="3.333333333333333" y="5" width="53.33333333333333" height="80" as="geometry" />
        </mxCell>
        <mxCell id="KtM1gwVQeg2r9AHxviMZ-137" value="null" style="text;html=1;align=center;verticalAlign=middle;resizable=0;points=[];autosize=1;strokeColor=none;fillColor=none;fontSize=18;strokeWidth=7;opacity=0;fontFamily=Helvetica;" vertex="1" parent="KtM1gwVQeg2r9AHxviMZ-135">
          <mxGeometry x="5.333333333333332" y="25" width="50" height="40" as="geometry" />
        </mxCell>
        <mxCell id="KtM1gwVQeg2r9AHxviMZ-138" value="" style="group;fontSize=18;fontFamily=Helvetica;" vertex="1" connectable="0" parent="1">
          <mxGeometry x="1610" y="317" width="95" height="90" as="geometry" />
        </mxCell>
        <mxCell id="KtM1gwVQeg2r9AHxviMZ-139" value="" style="rounded=0;whiteSpace=wrap;html=1;fillColor=default;fontSize=18;fontFamily=Helvetica;" vertex="1" parent="KtM1gwVQeg2r9AHxviMZ-138">
          <mxGeometry x="5" y="5" width="80" height="80" as="geometry" />
        </mxCell>
        <mxCell id="KtM1gwVQeg2r9AHxviMZ-140" value="&lt;div&gt;&lt;span style=&quot;text-align: start;&quot;&gt;&lt;font style=&quot;background-color: rgb(251, 251, 251); font-size: 17px;&quot;&gt;14&lt;/font&gt;&lt;font style=&quot;color: rgb(32, 33, 34); text-wrap: wrap; background-color: rgb(255, 255, 255); font-size: 23px;&quot;&gt;丨&lt;/font&gt;&lt;span style=&quot;color: rgb(32, 33, 34); text-wrap: wrap; background-color: rgb(255, 255, 255);&quot;&gt;&lt;font style=&quot;font-size: 17px;&quot;&gt;140&lt;/font&gt;&lt;/span&gt;&lt;/span&gt;&lt;/div&gt;————&lt;br&gt;&lt;span style=&quot;text-wrap: wrap; text-align: start; background-color: rgb(255, 255, 255);&quot;&gt;&lt;font color=&quot;#474747&quot; style=&quot;&quot;&gt;0&lt;/font&gt;&lt;font style=&quot;color: rgb(32, 33, 34); font-size: 23px;&quot;&gt;丨&lt;/font&gt;&lt;font style=&quot;color: rgb(32, 33, 34); font-size: 18px;&quot;&gt;19&lt;/font&gt;&lt;/span&gt;" style="text;html=1;align=center;verticalAlign=middle;resizable=0;points=[];autosize=1;strokeColor=none;fillColor=none;fontSize=18;strokeWidth=7;opacity=0;fontFamily=Helvetica;" vertex="1" parent="KtM1gwVQeg2r9AHxviMZ-138">
          <mxGeometry x="-5" width="100" height="90" as="geometry" />
        </mxCell>
        <mxCell id="KtM1gwVQeg2r9AHxviMZ-22" value="" style="group;fontSize=18;fontFamily=Helvetica;" vertex="1" connectable="0" parent="1">
          <mxGeometry x="95" y="549" width="95" height="90" as="geometry" />
        </mxCell>
        <mxCell id="KtM1gwVQeg2r9AHxviMZ-20" value="" style="rounded=0;whiteSpace=wrap;html=1;fillColor=default;fontSize=18;fontFamily=Helvetica;" vertex="1" parent="KtM1gwVQeg2r9AHxviMZ-22">
          <mxGeometry x="5" y="5" width="80" height="80" as="geometry" />
        </mxCell>
        <mxCell id="KtM1gwVQeg2r9AHxviMZ-3" value="&lt;div style=&quot;text-align: center;&quot;&gt;&lt;span style=&quot;font-size: 18px; text-align: start; background-color: rgb(251, 251, 251);&quot;&gt;0&lt;/span&gt;&lt;span style=&quot;text-wrap: wrap; color: rgb(32, 33, 34); text-align: start; background-color: rgb(255, 255, 255);&quot;&gt;&lt;font style=&quot;font-size: 23px;&quot;&gt;丨&lt;/font&gt;&lt;/span&gt;&lt;span style=&quot;font-size: 18px; text-wrap: wrap; color: rgb(32, 33, 34); text-align: start; background-color: rgb(255, 255, 255);&quot;&gt;0&lt;/span&gt;&lt;/div&gt;&lt;font style=&quot;font-size: 18px;&quot;&gt;————&lt;/font&gt;&lt;br style=&quot;font-size: 18px;&quot;&gt;&lt;span style=&quot;color: rgb(71, 71, 71); text-align: start; text-wrap: wrap; background-color: rgb(255, 255, 255); font-size: 18px;&quot;&gt;+∞&lt;/span&gt;&lt;span style=&quot;color: rgb(32, 33, 34); text-align: start; text-wrap: wrap; background-color: rgb(255, 255, 255);&quot;&gt;&lt;font style=&quot;font-size: 23px;&quot;&gt;丨-&lt;/font&gt;&lt;/span&gt;&lt;span style=&quot;color: rgb(71, 71, 71); text-align: start; text-wrap: wrap; background-color: rgb(255, 255, 255); font-size: 18px;&quot;&gt;∞&lt;/span&gt;" style="text;html=1;align=center;verticalAlign=middle;resizable=0;points=[];autosize=1;strokeColor=none;fillColor=none;fontSize=18;strokeWidth=7;opacity=0;fontFamily=Helvetica;" vertex="1" parent="KtM1gwVQeg2r9AHxviMZ-22">
          <mxGeometry x="-5" width="100" height="90" as="geometry" />
        </mxCell>
        <mxCell id="KtM1gwVQeg2r9AHxviMZ-23" value="" style="group;fontSize=18;fontFamily=Helvetica;" vertex="1" connectable="0" parent="1">
          <mxGeometry x="95" y="665" width="95" height="90" as="geometry" />
        </mxCell>
        <mxCell id="KtM1gwVQeg2r9AHxviMZ-183" value="" style="endArrow=classic;html=1;rounded=0;" edge="1" parent="KtM1gwVQeg2r9AHxviMZ-23">
          <mxGeometry width="50" height="50" relative="1" as="geometry">
            <mxPoint x="71" y="45.47000000000003" as="sourcePoint" />
            <mxPoint x="111" y="45.47000000000003" as="targetPoint" />
          </mxGeometry>
        </mxCell>
        <mxCell id="KtM1gwVQeg2r9AHxviMZ-24" value="" style="rounded=0;whiteSpace=wrap;html=1;fillColor=default;fontSize=18;fontFamily=Helvetica;" vertex="1" parent="KtM1gwVQeg2r9AHxviMZ-23">
          <mxGeometry x="5" y="5" width="80" height="80" as="geometry" />
        </mxCell>
        <mxCell id="KtM1gwVQeg2r9AHxviMZ-25" value="null&lt;br style=&quot;font-size: 18px;&quot;&gt;————&lt;br style=&quot;font-size: 18px;&quot;&gt;null" style="text;html=1;align=center;verticalAlign=middle;resizable=0;points=[];autosize=1;strokeColor=none;fillColor=none;fontSize=18;strokeWidth=7;opacity=0;fontFamily=Helvetica;" vertex="1" parent="KtM1gwVQeg2r9AHxviMZ-23">
          <mxGeometry x="-5" y="5" width="100" height="80" as="geometry" />
        </mxCell>
        <mxCell id="KtM1gwVQeg2r9AHxviMZ-26" value="" style="group;fontSize=18;fontFamily=Helvetica;" vertex="1" connectable="0" parent="1">
          <mxGeometry x="95" y="431" width="95" height="90" as="geometry" />
        </mxCell>
        <mxCell id="KtM1gwVQeg2r9AHxviMZ-27" value="" style="rounded=0;whiteSpace=wrap;html=1;fillColor=default;fontSize=18;fontFamily=Helvetica;" vertex="1" parent="KtM1gwVQeg2r9AHxviMZ-26">
          <mxGeometry x="5" y="5" width="80" height="80" as="geometry" />
        </mxCell>
        <mxCell id="KtM1gwVQeg2r9AHxviMZ-28" value="&lt;div style=&quot;&quot;&gt;&lt;span style=&quot;font-size: 18px; text-align: start;&quot;&gt;0&lt;/span&gt;&lt;span style=&quot;text-wrap: wrap; color: rgb(32, 33, 34); text-align: start; background-color: rgb(255, 255, 255);&quot;&gt;&lt;font style=&quot;font-size: 23px;&quot;&gt;丨&lt;/font&gt;&lt;/span&gt;&lt;span style=&quot;font-size: 18px; text-wrap: wrap; color: rgb(32, 33, 34); text-align: start; background-color: rgb(255, 255, 255);&quot;&gt;0&lt;/span&gt;&lt;/div&gt;&lt;font style=&quot;font-size: 18px;&quot;&gt;————&lt;/font&gt;&lt;br style=&quot;font-size: 18px;&quot;&gt;&lt;span style=&quot;text-wrap: wrap; color: rgb(71, 71, 71); text-align: start; background-color: rgb(255, 255, 255); font-size: 18px;&quot;&gt;+∞&lt;/span&gt;&lt;span style=&quot;text-wrap: wrap; color: rgb(32, 33, 34); text-align: start; background-color: rgb(255, 255, 255);&quot;&gt;&lt;font style=&quot;font-size: 23px;&quot;&gt;丨-&lt;/font&gt;&lt;/span&gt;&lt;span style=&quot;text-wrap: wrap; color: rgb(71, 71, 71); text-align: start; background-color: rgb(255, 255, 255); font-size: 18px;&quot;&gt;∞&lt;/span&gt;" style="text;html=1;align=center;verticalAlign=middle;resizable=0;points=[];autosize=1;strokeColor=none;fillColor=none;fontSize=18;strokeWidth=7;opacity=0;fontFamily=Helvetica;" vertex="1" parent="KtM1gwVQeg2r9AHxviMZ-26">
          <mxGeometry x="-5" width="100" height="90" as="geometry" />
        </mxCell>
        <mxCell id="KtM1gwVQeg2r9AHxviMZ-29" value="" style="group;fontSize=18;fontFamily=Helvetica;" vertex="1" connectable="0" parent="1">
          <mxGeometry x="95" y="317" width="95" height="90" as="geometry" />
        </mxCell>
        <mxCell id="KtM1gwVQeg2r9AHxviMZ-30" value="" style="rounded=0;whiteSpace=wrap;html=1;fillColor=default;fontSize=18;fontFamily=Helvetica;" vertex="1" parent="KtM1gwVQeg2r9AHxviMZ-29">
          <mxGeometry x="5" y="5" width="80" height="80" as="geometry" />
        </mxCell>
        <mxCell id="KtM1gwVQeg2r9AHxviMZ-31" value="&lt;div style=&quot;&quot;&gt;&lt;span style=&quot;font-size: 18px; text-align: start;&quot;&gt;0&lt;/span&gt;&lt;span style=&quot;text-wrap: wrap; color: rgb(32, 33, 34); text-align: start; background-color: rgb(255, 255, 255);&quot;&gt;&lt;font style=&quot;font-size: 23px;&quot;&gt;丨&lt;/font&gt;&lt;/span&gt;&lt;span style=&quot;font-size: 18px; text-wrap: wrap; color: rgb(32, 33, 34); text-align: start; background-color: rgb(255, 255, 255);&quot;&gt;0&lt;/span&gt;&lt;/div&gt;&lt;font style=&quot;font-size: 18px;&quot;&gt;————&lt;/font&gt;&lt;br style=&quot;font-size: 18px;&quot;&gt;&lt;span style=&quot;text-wrap: wrap; color: rgb(71, 71, 71); text-align: start; background-color: rgb(255, 255, 255); font-size: 18px;&quot;&gt;+∞&lt;/span&gt;&lt;span style=&quot;text-wrap: wrap; color: rgb(32, 33, 34); text-align: start; background-color: rgb(255, 255, 255);&quot;&gt;&lt;font style=&quot;font-size: 23px;&quot;&gt;丨-&lt;/font&gt;&lt;/span&gt;&lt;span style=&quot;text-wrap: wrap; color: rgb(71, 71, 71); text-align: start; background-color: rgb(255, 255, 255); font-size: 18px;&quot;&gt;∞&lt;/span&gt;" style="text;html=1;align=center;verticalAlign=middle;resizable=0;points=[];autosize=1;strokeColor=none;fillColor=none;fontSize=18;strokeWidth=7;opacity=0;fontFamily=Helvetica;" vertex="1" parent="KtM1gwVQeg2r9AHxviMZ-29">
          <mxGeometry x="-5" width="100" height="90" as="geometry" />
        </mxCell>
        <mxCell id="KtM1gwVQeg2r9AHxviMZ-141" value="" style="group;fontSize=18;fontFamily=Helvetica;" vertex="1" connectable="0" parent="1">
          <mxGeometry x="302" y="431" width="95" height="90" as="geometry" />
        </mxCell>
        <mxCell id="KtM1gwVQeg2r9AHxviMZ-142" value="" style="rounded=0;whiteSpace=wrap;html=1;fillColor=default;fontSize=18;fontFamily=Helvetica;" vertex="1" parent="KtM1gwVQeg2r9AHxviMZ-141">
          <mxGeometry x="5" y="5" width="80" height="80" as="geometry" />
        </mxCell>
        <mxCell id="KtM1gwVQeg2r9AHxviMZ-143" value="&lt;div&gt;&lt;span style=&quot;text-align: start;&quot;&gt;&lt;font style=&quot;background-color: rgb(251, 251, 251);&quot;&gt;2&lt;/font&gt;&lt;font style=&quot;color: rgb(32, 33, 34); text-wrap: wrap; background-color: rgb(255, 255, 255); font-size: 23px;&quot;&gt;丨&lt;/font&gt;&lt;font style=&quot;color: rgb(32, 33, 34); text-wrap: wrap; background-color: rgb(255, 255, 255); font-size: 18px;&quot;&gt;21&lt;/font&gt;&lt;/span&gt;&lt;/div&gt;————&lt;br&gt;&lt;span style=&quot;text-wrap: wrap; text-align: start; background-color: rgb(255, 255, 255);&quot;&gt;&lt;font color=&quot;#474747&quot;&gt;6&lt;/font&gt;&lt;/span&gt;&lt;span style=&quot;text-wrap: wrap; color: rgb(32, 33, 34); text-align: start; background-color: rgb(255, 255, 255);&quot;&gt;&lt;font style=&quot;font-size: 23px;&quot;&gt;丨&lt;/font&gt;&lt;font style=&quot;font-size: 18px;&quot;&gt;15&lt;/font&gt;&lt;/span&gt;" style="text;html=1;align=center;verticalAlign=middle;resizable=0;points=[];autosize=1;strokeColor=none;fillColor=none;fontSize=18;strokeWidth=7;opacity=0;fontFamily=Helvetica;" vertex="1" parent="KtM1gwVQeg2r9AHxviMZ-141">
          <mxGeometry x="-5" width="100" height="90" as="geometry" />
        </mxCell>
        <mxCell id="KtM1gwVQeg2r9AHxviMZ-144" value="" style="group;fontSize=18;fontFamily=Helvetica;" vertex="1" connectable="0" parent="1">
          <mxGeometry x="730" y="431" width="95" height="90" as="geometry" />
        </mxCell>
        <mxCell id="KtM1gwVQeg2r9AHxviMZ-145" value="" style="rounded=0;whiteSpace=wrap;html=1;fillColor=default;fontSize=18;fontFamily=Helvetica;" vertex="1" parent="KtM1gwVQeg2r9AHxviMZ-144">
          <mxGeometry x="5" y="5" width="80" height="80" as="geometry" />
        </mxCell>
        <mxCell id="KtM1gwVQeg2r9AHxviMZ-146" value="&lt;div&gt;&lt;span style=&quot;text-align: start;&quot;&gt;&lt;font style=&quot;background-color: rgb(251, 251, 251);&quot;&gt;4&lt;/font&gt;&lt;font style=&quot;color: rgb(32, 33, 34); text-wrap: wrap; background-color: rgb(255, 255, 255); font-size: 23px;&quot;&gt;丨&lt;/font&gt;&lt;font style=&quot;color: rgb(32, 33, 34); text-wrap: wrap; background-color: rgb(255, 255, 255); font-size: 18px;&quot;&gt;44&lt;/font&gt;&lt;/span&gt;&lt;/div&gt;————&lt;br&gt;&lt;span style=&quot;text-wrap: wrap; text-align: start; background-color: rgb(255, 255, 255);&quot;&gt;&lt;font color=&quot;#474747&quot;&gt;6&lt;/font&gt;&lt;/span&gt;&lt;span style=&quot;text-wrap: wrap; color: rgb(32, 33, 34); text-align: start; background-color: rgb(255, 255, 255);&quot;&gt;&lt;font style=&quot;font-size: 23px;&quot;&gt;丨&lt;/font&gt;&lt;font style=&quot;font-size: 18px;&quot;&gt;15&lt;/font&gt;&lt;/span&gt;" style="text;html=1;align=center;verticalAlign=middle;resizable=0;points=[];autosize=1;strokeColor=none;fillColor=none;fontSize=18;strokeWidth=7;opacity=0;fontFamily=Helvetica;" vertex="1" parent="KtM1gwVQeg2r9AHxviMZ-144">
          <mxGeometry x="-5" width="100" height="90" as="geometry" />
        </mxCell>
        <mxCell id="KtM1gwVQeg2r9AHxviMZ-147" value="" style="group;fontSize=18;fontFamily=Helvetica;" vertex="1" connectable="0" parent="1">
          <mxGeometry x="1280" y="431" width="95" height="90" as="geometry" />
        </mxCell>
        <mxCell id="KtM1gwVQeg2r9AHxviMZ-148" value="" style="rounded=0;whiteSpace=wrap;html=1;fillColor=default;fontSize=18;fontFamily=Helvetica;" vertex="1" parent="KtM1gwVQeg2r9AHxviMZ-147">
          <mxGeometry x="5" y="5" width="80" height="80" as="geometry" />
        </mxCell>
        <mxCell id="KtM1gwVQeg2r9AHxviMZ-149" value="&lt;div&gt;&lt;span style=&quot;text-align: start;&quot;&gt;&lt;font style=&quot;background-color: rgb(251, 251, 251);&quot;&gt;5&lt;/font&gt;&lt;font style=&quot;color: rgb(32, 33, 34); text-wrap: wrap; background-color: rgb(255, 255, 255); font-size: 23px;&quot;&gt;丨&lt;/font&gt;&lt;font style=&quot;color: rgb(32, 33, 34); text-wrap: wrap; background-color: rgb(255, 255, 255); font-size: 18px;&quot;&gt;47&lt;/font&gt;&lt;/span&gt;&lt;/div&gt;————&lt;br&gt;&lt;span style=&quot;text-wrap: wrap; text-align: start; background-color: rgb(255, 255, 255);&quot;&gt;&lt;font color=&quot;#474747&quot; style=&quot;&quot;&gt;1&lt;/font&gt;&lt;font style=&quot;color: rgb(32, 33, 34); font-size: 20px;&quot;&gt;丨&lt;/font&gt;&lt;font style=&quot;color: rgb(32, 33, 34); font-size: 18px;&quot;&gt;19&lt;/font&gt;&lt;/span&gt;" style="text;html=1;align=center;verticalAlign=middle;resizable=0;points=[];autosize=1;strokeColor=none;fillColor=none;fontSize=18;strokeWidth=7;opacity=0;fontFamily=Helvetica;" vertex="1" parent="KtM1gwVQeg2r9AHxviMZ-147">
          <mxGeometry x="-5" width="100" height="90" as="geometry" />
        </mxCell>
        <mxCell id="KtM1gwVQeg2r9AHxviMZ-153" value="" style="endArrow=classic;html=1;rounded=0;entryX=0.05;entryY=0.556;entryDx=0;entryDy=0;entryPerimeter=0;endSize=8;" edge="1" parent="1" target="KtM1gwVQeg2r9AHxviMZ-149">
          <mxGeometry width="50" height="50" relative="1" as="geometry">
            <mxPoint x="820" y="481" as="sourcePoint" />
            <mxPoint x="740" y="486" as="targetPoint" />
          </mxGeometry>
        </mxCell>
        <mxCell id="KtM1gwVQeg2r9AHxviMZ-158" value="" style="endArrow=classic;html=1;rounded=0;entryX=0.13;entryY=0.556;entryDx=0;entryDy=0;entryPerimeter=0;endSize=8;" edge="1" parent="1">
          <mxGeometry width="50" height="50" relative="1" as="geometry">
            <mxPoint x="818" y="595" as="sourcePoint" />
            <mxPoint x="847.9999999999995" y="595.04" as="targetPoint" />
          </mxGeometry>
        </mxCell>
        <mxCell id="KtM1gwVQeg2r9AHxviMZ-176" value="" style="endArrow=classic;html=1;rounded=0;exitX=0.83;exitY=0.525;exitDx=0;exitDy=0;exitPerimeter=0;entryX=0.012;entryY=0.527;entryDx=0;entryDy=0;entryPerimeter=0;" edge="1" parent="1">
          <mxGeometry width="50" height="50" relative="1" as="geometry">
            <mxPoint x="388" y="712" as="sourcePoint" />
            <mxPoint x="414.20000000000005" y="712.1600000000001" as="targetPoint" />
          </mxGeometry>
        </mxCell>
        <mxCell id="KtM1gwVQeg2r9AHxviMZ-192" value="" style="endArrow=classic;html=1;rounded=0;exitX=0.5;exitY=1;exitDx=0;exitDy=0;entryX=0.023;entryY=0.246;entryDx=0;entryDy=0;entryPerimeter=0;endSize=8;" edge="1" parent="1" source="J-q6yY1MBjcJbUwqOQWw-173" target="KtM1gwVQeg2r9AHxviMZ-38">
          <mxGeometry width="50" height="50" relative="1" as="geometry">
            <mxPoint x="759" y="99" as="sourcePoint" />
            <mxPoint x="709" y="135" as="targetPoint" />
          </mxGeometry>
        </mxCell>
        <mxCell id="KtM1gwVQeg2r9AHxviMZ-193" value="&lt;font style=&quot;font-size: 23px;&quot;&gt;min&lt;/font&gt;" style="text;html=1;strokeColor=none;fillColor=none;align=center;verticalAlign=middle;whiteSpace=wrap;rounded=0;" vertex="1" parent="1">
          <mxGeometry x="514" y="225" width="60" height="30" as="geometry" />
        </mxCell>
        <mxCell id="KtM1gwVQeg2r9AHxviMZ-194" value="" style="endArrow=classic;html=1;rounded=0;exitX=0.75;exitY=0;exitDx=0;exitDy=0;endSize=8;" edge="1" parent="1" source="KtM1gwVQeg2r9AHxviMZ-193">
          <mxGeometry width="50" height="50" relative="1" as="geometry">
            <mxPoint x="554" y="120" as="sourcePoint" />
            <mxPoint x="619" y="189" as="targetPoint" />
          </mxGeometry>
        </mxCell>
        <mxCell id="KtM1gwVQeg2r9AHxviMZ-195" value="&lt;font style=&quot;font-size: 23px;&quot;&gt;max&lt;/font&gt;" style="text;html=1;strokeColor=none;fillColor=none;align=center;verticalAlign=middle;whiteSpace=wrap;rounded=0;" vertex="1" parent="1">
          <mxGeometry x="739" y="220" width="60" height="30" as="geometry" />
        </mxCell>
        <mxCell id="KtM1gwVQeg2r9AHxviMZ-196" value="" style="endArrow=classic;html=1;rounded=0;exitX=0.25;exitY=0;exitDx=0;exitDy=0;endSize=8;entryX=0.977;entryY=0.958;entryDx=0;entryDy=0;entryPerimeter=0;" edge="1" parent="1" source="KtM1gwVQeg2r9AHxviMZ-195" target="KtM1gwVQeg2r9AHxviMZ-38">
          <mxGeometry width="50" height="50" relative="1" as="geometry">
            <mxPoint x="569" y="235" as="sourcePoint" />
            <mxPoint x="629" y="199" as="targetPoint" />
          </mxGeometry>
        </mxCell>
        <mxCell id="KtM1gwVQeg2r9AHxviMZ-197" value="&lt;font style=&quot;font-size: 23px;&quot;&gt;索引节点&lt;/font&gt;" style="text;html=1;align=center;verticalAlign=middle;whiteSpace=wrap;rounded=0;" vertex="1" parent="1">
          <mxGeometry x="603" y="255" width="114" height="30" as="geometry" />
        </mxCell>
        <mxCell id="KtM1gwVQeg2r9AHxviMZ-198" value="" style="group;fontSize=18;fontFamily=Helvetica;" vertex="1" connectable="0" parent="1">
          <mxGeometry x="1020" y="109" width="95" height="90" as="geometry" />
        </mxCell>
        <mxCell id="KtM1gwVQeg2r9AHxviMZ-200" value="" style="rounded=0;whiteSpace=wrap;html=1;fillColor=default;fontSize=18;fontFamily=Helvetica;" vertex="1" parent="KtM1gwVQeg2r9AHxviMZ-198">
          <mxGeometry x="5" y="5" width="80" height="80" as="geometry" />
        </mxCell>
        <mxCell id="KtM1gwVQeg2r9AHxviMZ-201" value="12&lt;br style=&quot;font-size: 18px;&quot;&gt;————&lt;br style=&quot;font-size: 18px;&quot;&gt;60" style="text;html=1;align=center;verticalAlign=middle;resizable=0;points=[];autosize=1;strokeColor=none;fillColor=none;fontSize=18;strokeWidth=7;opacity=0;fontFamily=Helvetica;" vertex="1" parent="KtM1gwVQeg2r9AHxviMZ-198">
          <mxGeometry x="-5" y="5" width="100" height="80" as="geometry" />
        </mxCell>
        <mxCell id="KtM1gwVQeg2r9AHxviMZ-202" value="&lt;font style=&quot;font-size: 23px;&quot;&gt;数据节点&lt;/font&gt;" style="text;html=1;align=center;verticalAlign=middle;whiteSpace=wrap;rounded=0;" vertex="1" parent="1">
          <mxGeometry x="1001" y="250" width="114" height="30" as="geometry" />
        </mxCell>
        <mxCell id="KtM1gwVQeg2r9AHxviMZ-203" value="&lt;font style=&quot;font-size: 23px;&quot;&gt;key&lt;/font&gt;" style="text;html=1;strokeColor=none;fillColor=none;align=center;verticalAlign=middle;whiteSpace=wrap;rounded=0;" vertex="1" parent="1">
          <mxGeometry x="1157" y="190" width="60" height="30" as="geometry" />
        </mxCell>
        <mxCell id="KtM1gwVQeg2r9AHxviMZ-204" value="" style="endArrow=classic;html=1;rounded=0;exitX=0;exitY=0.5;exitDx=0;exitDy=0;endSize=8;entryX=0.9;entryY=0.991;entryDx=0;entryDy=0;entryPerimeter=0;" edge="1" parent="1" source="KtM1gwVQeg2r9AHxviMZ-203" target="KtM1gwVQeg2r9AHxviMZ-201">
          <mxGeometry width="50" height="50" relative="1" as="geometry">
            <mxPoint x="764" y="230" as="sourcePoint" />
            <mxPoint x="1100" y="184" as="targetPoint" />
          </mxGeometry>
        </mxCell>
        <mxCell id="KtM1gwVQeg2r9AHxviMZ-205" value="&lt;font style=&quot;font-size: 23px;&quot;&gt;value&lt;/font&gt;" style="text;html=1;strokeColor=none;fillColor=none;align=center;verticalAlign=middle;whiteSpace=wrap;rounded=0;" vertex="1" parent="1">
          <mxGeometry x="1157" y="79" width="60" height="30" as="geometry" />
        </mxCell>
        <mxCell id="KtM1gwVQeg2r9AHxviMZ-206" value="" style="endArrow=classic;html=1;rounded=0;exitX=0;exitY=0.5;exitDx=0;exitDy=0;entryX=0.91;entryY=0.003;entryDx=0;entryDy=0;entryPerimeter=0;endSize=8;" edge="1" parent="1" source="KtM1gwVQeg2r9AHxviMZ-205" target="KtM1gwVQeg2r9AHxviMZ-201">
          <mxGeometry width="50" height="50" relative="1" as="geometry">
            <mxPoint x="759" y="99" as="sourcePoint" />
            <mxPoint x="709" y="124" as="targetPoint" />
          </mxGeometry>
        </mxCell>
        <mxCell id="KtM1gwVQeg2r9AHxviMZ-207" value="" style="endArrow=classic;html=1;rounded=0;exitX=0.522;exitY=0.947;exitDx=0;exitDy=0;exitPerimeter=0;entryX=0.522;entryY=0.036;entryDx=0;entryDy=0;entryPerimeter=0;endSize=8;" edge="1" parent="1" source="KtM1gwVQeg2r9AHxviMZ-31" target="KtM1gwVQeg2r9AHxviMZ-28">
          <mxGeometry width="50" height="50" relative="1" as="geometry">
            <mxPoint x="880" y="391" as="sourcePoint" />
            <mxPoint x="930" y="341" as="targetPoint" />
          </mxGeometry>
        </mxCell>
        <mxCell id="KtM1gwVQeg2r9AHxviMZ-209" value="" style="endArrow=classic;html=1;rounded=0;exitX=0.47;exitY=0.964;exitDx=0;exitDy=0;exitPerimeter=0;entryX=0.47;entryY=0.111;entryDx=0;entryDy=0;entryPerimeter=0;endSize=8;" edge="1" parent="1">
          <mxGeometry width="50" height="50" relative="1" as="geometry">
            <mxPoint x="1652" y="401.76" as="sourcePoint" />
            <mxPoint x="1652" y="438.99000000000024" as="targetPoint" />
          </mxGeometry>
        </mxCell>
        <mxCell id="KtM1gwVQeg2r9AHxviMZ-210" value="" style="endArrow=classic;html=1;rounded=0;exitX=0.5;exitY=0.937;exitDx=0;exitDy=0;exitPerimeter=0;endSize=8;" edge="1" parent="1" source="KtM1gwVQeg2r9AHxviMZ-28">
          <mxGeometry width="50" height="50" relative="1" as="geometry">
            <mxPoint x="940" y="329" as="sourcePoint" />
            <mxPoint x="140" y="554" as="targetPoint" />
          </mxGeometry>
        </mxCell>
        <mxCell id="KtM1gwVQeg2r9AHxviMZ-211" value="" style="endArrow=classic;html=1;rounded=0;entryX=0.492;entryY=0.06;entryDx=0;entryDy=0;entryPerimeter=0;endSize=8;" edge="1" parent="1">
          <mxGeometry width="50" height="50" relative="1" as="geometry">
            <mxPoint x="341" y="518" as="sourcePoint" />
            <mxPoint x="341.2000000000003" y="553.4000000000001" as="targetPoint" />
          </mxGeometry>
        </mxCell>
        <mxCell id="KtM1gwVQeg2r9AHxviMZ-212" value="" style="endArrow=classic;html=1;rounded=0;exitX=0.461;exitY=0.937;exitDx=0;exitDy=0;exitPerimeter=0;endSize=8;entryX=0.461;entryY=0.111;entryDx=0;entryDy=0;entryPerimeter=0;" edge="1" parent="1">
          <mxGeometry width="50" height="50" relative="1" as="geometry">
            <mxPoint x="771.0999999999995" y="514.3299999999999" as="sourcePoint" />
            <mxPoint x="771.0999999999995" y="557.9899999999998" as="targetPoint" />
          </mxGeometry>
        </mxCell>
        <mxCell id="KtM1gwVQeg2r9AHxviMZ-213" value="" style="endArrow=classic;html=1;rounded=0;entryX=0.472;entryY=0.06;entryDx=0;entryDy=0;entryPerimeter=0;endSize=8;" edge="1" parent="1">
          <mxGeometry width="50" height="50" relative="1" as="geometry">
            <mxPoint x="1322" y="518" as="sourcePoint" />
            <mxPoint x="1322.1999999999998" y="552.4000000000001" as="targetPoint" />
          </mxGeometry>
        </mxCell>
        <mxCell id="KtM1gwVQeg2r9AHxviMZ-215" value="" style="endArrow=classic;html=1;rounded=0;exitX=0.505;exitY=0.978;exitDx=0;exitDy=0;exitPerimeter=0;endSize=8;entryX=0.505;entryY=0.111;entryDx=0;entryDy=0;entryPerimeter=0;" edge="1" parent="1">
          <mxGeometry width="50" height="50" relative="1" as="geometry">
            <mxPoint x="1654.5" y="516.02" as="sourcePoint" />
            <mxPoint x="1654.5" y="555.9900000000002" as="targetPoint" />
          </mxGeometry>
        </mxCell>
      </root>
    </mxGraphModel>
  </diagram>
</mxfile>
